%TF.GenerationSoftware,KiCad,Pcbnew,(6.0.7)*%
%TF.CreationDate,2022-09-29T14:27:19-05:00*%
%TF.ProjectId,usb2uart,75736232-7561-4727-942e-6b696361645f,2.0*%
%TF.SameCoordinates,Original*%
%TF.FileFunction,Soldermask,Bot*%
%TF.FilePolarity,Negative*%
%FSLAX46Y46*%
G04 Gerber Fmt 4.6, Leading zero omitted, Abs format (unit mm)*
G04 Created by KiCad (PCBNEW (6.0.7)) date 2022-09-29 14:27:19*
%MOMM*%
%LPD*%
G01*
G04 APERTURE LIST*
G04 Aperture macros list*
%AMRoundRect*
0 Rectangle with rounded corners*
0 $1 Rounding radius*
0 $2 $3 $4 $5 $6 $7 $8 $9 X,Y pos of 4 corners*
0 Add a 4 corners polygon primitive as box body*
4,1,4,$2,$3,$4,$5,$6,$7,$8,$9,$2,$3,0*
0 Add four circle primitives for the rounded corners*
1,1,$1+$1,$2,$3*
1,1,$1+$1,$4,$5*
1,1,$1+$1,$6,$7*
1,1,$1+$1,$8,$9*
0 Add four rect primitives between the rounded corners*
20,1,$1+$1,$2,$3,$4,$5,0*
20,1,$1+$1,$4,$5,$6,$7,0*
20,1,$1+$1,$6,$7,$8,$9,0*
20,1,$1+$1,$8,$9,$2,$3,0*%
G04 Aperture macros list end*
%ADD10C,1.854200*%
%ADD11C,0.500000*%
%ADD12C,5.200000*%
%ADD13C,1.879600*%
%ADD14C,3.505200*%
%ADD15C,2.082800*%
%ADD16C,2.235200*%
%ADD17C,2.000000*%
%ADD18RoundRect,0.101600X-0.965200X-0.965200X0.965200X-0.965200X0.965200X0.965200X-0.965200X0.965200X0*%
%ADD19C,2.133600*%
G04 APERTURE END LIST*
D10*
%TO.C,C3*%
X125557280Y-146812000D03*
X130556000Y-146812000D03*
%TD*%
D11*
%TO.C,H1*%
X150368000Y-151638000D03*
X150368000Y-148590000D03*
X146812000Y-150114000D03*
X147320000Y-151638000D03*
D12*
X148844000Y-150114000D03*
D11*
X148844000Y-148082000D03*
X147320000Y-148590000D03*
X148844000Y-152146000D03*
X150876000Y-150114000D03*
%TD*%
D10*
%TO.C,C4*%
X116078000Y-139659360D03*
X116078000Y-134660640D03*
%TD*%
%TO.C,C1*%
X125557280Y-128524000D03*
X130556000Y-128524000D03*
%TD*%
D11*
%TO.C,H4*%
X102870000Y-150114000D03*
X103378000Y-151638000D03*
X104902000Y-148082000D03*
X103378000Y-148590000D03*
X106934000Y-150114000D03*
X106426000Y-151638000D03*
X106426000Y-148590000D03*
D12*
X104902000Y-150114000D03*
D11*
X104902000Y-152146000D03*
%TD*%
D13*
%TO.C,J1*%
X112659160Y-138409680D03*
D14*
X107960160Y-143179800D03*
X107960160Y-131140200D03*
D13*
X110677960Y-138409680D03*
X112659160Y-135910320D03*
X110677960Y-135910320D03*
%TD*%
D15*
%TO.C,J3*%
X148336000Y-130810000D03*
X148336000Y-133350000D03*
X148336000Y-135890000D03*
X148336000Y-138430000D03*
X148336000Y-140970000D03*
X148336000Y-143510000D03*
%TD*%
%TO.C,R1*%
X134620000Y-128524000D03*
X142240000Y-128524000D03*
%TD*%
D16*
%TO.C,R3*%
X134620000Y-149352000D03*
X142240000Y-149352000D03*
%TD*%
D17*
%TO.C,FB1*%
X116078000Y-146812000D03*
X121158000Y-146812000D03*
%TD*%
D11*
%TO.C,H2*%
X150876000Y-124206000D03*
X148844000Y-126238000D03*
X148844000Y-122174000D03*
X150368000Y-125730000D03*
X150368000Y-122682000D03*
X146812000Y-124206000D03*
X147320000Y-122682000D03*
D12*
X148844000Y-124206000D03*
D11*
X147320000Y-125730000D03*
%TD*%
D15*
%TO.C,D2*%
X141732000Y-139954000D03*
X139192000Y-139954000D03*
%TD*%
D10*
%TO.C,C2*%
X144526000Y-139659360D03*
X144526000Y-134660640D03*
%TD*%
D15*
%TO.C,J2*%
X121666000Y-139700000D03*
X121666000Y-137160000D03*
X121666000Y-134620000D03*
%TD*%
%TO.C,R2*%
X134620000Y-146558000D03*
X142240000Y-146558000D03*
%TD*%
D18*
%TO.C,C5*%
X121371360Y-128270000D03*
D19*
X116372640Y-128270000D03*
%TD*%
D11*
%TO.C,H3*%
X106426000Y-122682000D03*
X104902000Y-126238000D03*
X104902000Y-122174000D03*
X102870000Y-124206000D03*
X103378000Y-122682000D03*
X103378000Y-125730000D03*
X106426000Y-125730000D03*
D12*
X104902000Y-124206000D03*
D11*
X106934000Y-124206000D03*
%TD*%
D15*
%TO.C,D1*%
X141732000Y-134112000D03*
X139192000Y-134112000D03*
%TD*%
M02*
