%TF.GenerationSoftware,KiCad,Pcbnew,(6.0.7)*%
%TF.CreationDate,2022-09-29T14:27:19-05:00*%
%TF.ProjectId,usb2uart,75736232-7561-4727-942e-6b696361645f,2.0*%
%TF.SameCoordinates,Original*%
%TF.FileFunction,Copper,L2,Bot*%
%TF.FilePolarity,Positive*%
%FSLAX46Y46*%
G04 Gerber Fmt 4.6, Leading zero omitted, Abs format (unit mm)*
G04 Created by KiCad (PCBNEW (6.0.7)) date 2022-09-29 14:27:19*
%MOMM*%
%LPD*%
G01*
G04 APERTURE LIST*
%ADD10C,0.300000*%
%TA.AperFunction,NonConductor*%
%ADD11C,0.300000*%
%TD*%
%TA.AperFunction,NonConductor*%
%ADD12C,0.200000*%
%TD*%
%TA.AperFunction,ComponentPad*%
%ADD13C,1.651000*%
%TD*%
%TA.AperFunction,ComponentPad*%
%ADD14C,0.500000*%
%TD*%
%TA.AperFunction,ComponentPad*%
%ADD15C,5.200000*%
%TD*%
%TA.AperFunction,ComponentPad*%
%ADD16C,1.676400*%
%TD*%
%TA.AperFunction,ComponentPad*%
%ADD17C,3.302000*%
%TD*%
%TA.AperFunction,ComponentPad*%
%ADD18C,1.879600*%
%TD*%
%TA.AperFunction,ComponentPad*%
%ADD19C,2.032000*%
%TD*%
%TA.AperFunction,ComponentPad*%
%ADD20C,2.000000*%
%TD*%
%TA.AperFunction,ComponentPad*%
%ADD21R,1.930400X1.930400*%
%TD*%
%TA.AperFunction,ComponentPad*%
%ADD22C,1.930400*%
%TD*%
%TA.AperFunction,ViaPad*%
%ADD23C,0.685800*%
%TD*%
%TA.AperFunction,Conductor*%
%ADD24C,0.508000*%
%TD*%
%TA.AperFunction,Conductor*%
%ADD25C,0.254000*%
%TD*%
G04 APERTURE END LIST*
D10*
D11*
X154834571Y-141552857D02*
X154834571Y-142410000D01*
X154834571Y-141981428D02*
X153334571Y-141981428D01*
X153548857Y-142124285D01*
X153691714Y-142267142D01*
X153763142Y-142410000D01*
X154691714Y-140910000D02*
X154763142Y-140838571D01*
X154834571Y-140910000D01*
X154763142Y-140981428D01*
X154691714Y-140910000D01*
X154834571Y-140910000D01*
X153477428Y-140267142D02*
X153406000Y-140195714D01*
X153334571Y-140052857D01*
X153334571Y-139695714D01*
X153406000Y-139552857D01*
X153477428Y-139481428D01*
X153620285Y-139410000D01*
X153763142Y-139410000D01*
X153977428Y-139481428D01*
X154834571Y-140338571D01*
X154834571Y-139410000D01*
X153834571Y-138124285D02*
X154834571Y-138124285D01*
X153263142Y-138481428D02*
X154334571Y-138838571D01*
X154334571Y-137910000D01*
X153334571Y-137052857D02*
X153334571Y-136910000D01*
X153406000Y-136767142D01*
X153477428Y-136695714D01*
X153620285Y-136624285D01*
X153906000Y-136552857D01*
X154263142Y-136552857D01*
X154548857Y-136624285D01*
X154691714Y-136695714D01*
X154763142Y-136767142D01*
X154834571Y-136910000D01*
X154834571Y-137052857D01*
X154763142Y-137195714D01*
X154691714Y-137267142D01*
X154548857Y-137338571D01*
X154263142Y-137410000D01*
X153906000Y-137410000D01*
X153620285Y-137338571D01*
X153477428Y-137267142D01*
X153406000Y-137195714D01*
X153334571Y-137052857D01*
X153334571Y-135624285D02*
X153334571Y-135481428D01*
X153406000Y-135338571D01*
X153477428Y-135267142D01*
X153620285Y-135195714D01*
X153906000Y-135124285D01*
X154263142Y-135124285D01*
X154548857Y-135195714D01*
X154691714Y-135267142D01*
X154763142Y-135338571D01*
X154834571Y-135481428D01*
X154834571Y-135624285D01*
X154763142Y-135767142D01*
X154691714Y-135838571D01*
X154548857Y-135910000D01*
X154263142Y-135981428D01*
X153906000Y-135981428D01*
X153620285Y-135910000D01*
X153477428Y-135838571D01*
X153406000Y-135767142D01*
X153334571Y-135624285D01*
X154834571Y-133338571D02*
X153834571Y-133338571D01*
X153334571Y-133338571D02*
X153406000Y-133410000D01*
X153477428Y-133338571D01*
X153406000Y-133267142D01*
X153334571Y-133338571D01*
X153477428Y-133338571D01*
X153834571Y-132624285D02*
X154834571Y-132624285D01*
X153977428Y-132624285D02*
X153906000Y-132552857D01*
X153834571Y-132410000D01*
X153834571Y-132195714D01*
X153906000Y-132052857D01*
X154048857Y-131981428D01*
X154834571Y-131981428D01*
D12*
X152646000Y-152908000D02*
X156542420Y-152908000D01*
X152646000Y-121412000D02*
X156542420Y-121412000D01*
X155956000Y-152908000D02*
X155956000Y-121412000D01*
X155956000Y-152908000D02*
X155956000Y-121412000D01*
X155956000Y-152908000D02*
X156542421Y-151781496D01*
X155956000Y-152908000D02*
X155369579Y-151781496D01*
X155956000Y-121412000D02*
X155369579Y-122538504D01*
X155956000Y-121412000D02*
X156542421Y-122538504D01*
D10*
D11*
X122480142Y-156104571D02*
X121623000Y-156104571D01*
X122051571Y-156104571D02*
X122051571Y-154604571D01*
X121908714Y-154818857D01*
X121765857Y-154961714D01*
X121623000Y-155033142D01*
X123123000Y-155961714D02*
X123194428Y-156033142D01*
X123123000Y-156104571D01*
X123051571Y-156033142D01*
X123123000Y-155961714D01*
X123123000Y-156104571D01*
X123908714Y-156104571D02*
X124194428Y-156104571D01*
X124337285Y-156033142D01*
X124408714Y-155961714D01*
X124551571Y-155747428D01*
X124623000Y-155461714D01*
X124623000Y-154890285D01*
X124551571Y-154747428D01*
X124480142Y-154676000D01*
X124337285Y-154604571D01*
X124051571Y-154604571D01*
X123908714Y-154676000D01*
X123837285Y-154747428D01*
X123765857Y-154890285D01*
X123765857Y-155247428D01*
X123837285Y-155390285D01*
X123908714Y-155461714D01*
X124051571Y-155533142D01*
X124337285Y-155533142D01*
X124480142Y-155461714D01*
X124551571Y-155390285D01*
X124623000Y-155247428D01*
X125980142Y-154604571D02*
X125265857Y-154604571D01*
X125194428Y-155318857D01*
X125265857Y-155247428D01*
X125408714Y-155176000D01*
X125765857Y-155176000D01*
X125908714Y-155247428D01*
X125980142Y-155318857D01*
X126051571Y-155461714D01*
X126051571Y-155818857D01*
X125980142Y-155961714D01*
X125908714Y-156033142D01*
X125765857Y-156104571D01*
X125408714Y-156104571D01*
X125265857Y-156033142D01*
X125194428Y-155961714D01*
X126980142Y-154604571D02*
X127123000Y-154604571D01*
X127265857Y-154676000D01*
X127337285Y-154747428D01*
X127408714Y-154890285D01*
X127480142Y-155176000D01*
X127480142Y-155533142D01*
X127408714Y-155818857D01*
X127337285Y-155961714D01*
X127265857Y-156033142D01*
X127123000Y-156104571D01*
X126980142Y-156104571D01*
X126837285Y-156033142D01*
X126765857Y-155961714D01*
X126694428Y-155818857D01*
X126623000Y-155533142D01*
X126623000Y-155176000D01*
X126694428Y-154890285D01*
X126765857Y-154747428D01*
X126837285Y-154676000D01*
X126980142Y-154604571D01*
X128408714Y-154604571D02*
X128551571Y-154604571D01*
X128694428Y-154676000D01*
X128765857Y-154747428D01*
X128837285Y-154890285D01*
X128908714Y-155176000D01*
X128908714Y-155533142D01*
X128837285Y-155818857D01*
X128765857Y-155961714D01*
X128694428Y-156033142D01*
X128551571Y-156104571D01*
X128408714Y-156104571D01*
X128265857Y-156033142D01*
X128194428Y-155961714D01*
X128123000Y-155818857D01*
X128051571Y-155533142D01*
X128051571Y-155176000D01*
X128123000Y-154890285D01*
X128194428Y-154747428D01*
X128265857Y-154676000D01*
X128408714Y-154604571D01*
X130694428Y-156104571D02*
X130694428Y-155104571D01*
X130694428Y-154604571D02*
X130623000Y-154676000D01*
X130694428Y-154747428D01*
X130765857Y-154676000D01*
X130694428Y-154604571D01*
X130694428Y-154747428D01*
X131408714Y-155104571D02*
X131408714Y-156104571D01*
X131408714Y-155247428D02*
X131480142Y-155176000D01*
X131623000Y-155104571D01*
X131837285Y-155104571D01*
X131980142Y-155176000D01*
X132051571Y-155318857D01*
X132051571Y-156104571D01*
D12*
X102108000Y-153408000D02*
X102108000Y-157812420D01*
X151638000Y-153408000D02*
X151638000Y-157812420D01*
X102108000Y-157226000D02*
X151638000Y-157226000D01*
X102108000Y-157226000D02*
X151638000Y-157226000D01*
X102108000Y-157226000D02*
X103234504Y-157812421D01*
X102108000Y-157226000D02*
X103234504Y-156639579D01*
X151638000Y-157226000D02*
X150511496Y-156639579D01*
X151638000Y-157226000D02*
X150511496Y-157812421D01*
D13*
%TO.P,C3,1,1*%
%TO.N,/3V3OUT*%
X125557280Y-146812000D03*
%TO.P,C3,2,2*%
%TO.N,GND*%
X130556000Y-146812000D03*
%TD*%
D14*
%TO.P,H1,1*%
%TO.N,N/C*%
X150368000Y-151638000D03*
X150368000Y-148590000D03*
X146812000Y-150114000D03*
X147320000Y-151638000D03*
D15*
X148844000Y-150114000D03*
D14*
X148844000Y-148082000D03*
X147320000Y-148590000D03*
X148844000Y-152146000D03*
X150876000Y-150114000D03*
%TD*%
D13*
%TO.P,C4,1,1*%
%TO.N,Net-(C4-Pad1)*%
X116078000Y-139659360D03*
%TO.P,C4,2,2*%
%TO.N,GND*%
X116078000Y-134660640D03*
%TD*%
%TO.P,C1,1,1*%
%TO.N,/VCC*%
X125557280Y-128524000D03*
%TO.P,C1,2,2*%
%TO.N,GND*%
X130556000Y-128524000D03*
%TD*%
D14*
%TO.P,H4,1*%
%TO.N,N/C*%
X102870000Y-150114000D03*
X103378000Y-151638000D03*
X104902000Y-148082000D03*
X103378000Y-148590000D03*
X106934000Y-150114000D03*
X106426000Y-151638000D03*
X106426000Y-148590000D03*
D15*
X104902000Y-150114000D03*
D14*
X104902000Y-152146000D03*
%TD*%
D16*
%TO.P,J1,VBUS,VBUS*%
%TO.N,Net-(C4-Pad1)*%
X112659160Y-138409680D03*
D17*
%TO.P,J1,SHLD,SHIELD*%
%TO.N,Net-(J1-PadSHLD)*%
X107960160Y-143179800D03*
X107960160Y-131140200D03*
D16*
%TO.P,J1,GND,GND*%
%TO.N,GND*%
X110677960Y-138409680D03*
%TO.P,J1,D-,D-*%
%TO.N,Net-(U1-Pad16)*%
X112659160Y-135910320D03*
%TO.P,J1,D+,D+*%
%TO.N,Net-(U1-Pad15)*%
X110677960Y-135910320D03*
%TD*%
D18*
%TO.P,J3,1,1*%
%TO.N,GND*%
X148336000Y-130810000D03*
%TO.P,J3,2,2*%
%TO.N,/CTS*%
X148336000Y-133350000D03*
%TO.P,J3,3,3*%
%TO.N,VCCIO*%
X148336000Y-135890000D03*
%TO.P,J3,4,4*%
%TO.N,/TX*%
X148336000Y-138430000D03*
%TO.P,J3,5,5*%
%TO.N,/RX*%
X148336000Y-140970000D03*
%TO.P,J3,6,6*%
%TO.N,/RTS*%
X148336000Y-143510000D03*
%TD*%
%TO.P,R1,P$1,1*%
%TO.N,Net-(D1-PadA)*%
X134620000Y-128524000D03*
%TO.P,R1,P$2,2*%
%TO.N,VCCIO*%
X142240000Y-128524000D03*
%TD*%
D19*
%TO.P,R3,P$1,1*%
%TO.N,Net-(R3-PadP$1)*%
X134620000Y-149352000D03*
%TO.P,R3,P$2,2*%
%TO.N,VCCIO*%
X142240000Y-149352000D03*
%TD*%
D20*
%TO.P,FB1,1*%
%TO.N,Net-(C4-Pad1)*%
X116078000Y-146812000D03*
%TO.P,FB1,2*%
%TO.N,/VCC*%
X121158000Y-146812000D03*
%TD*%
D14*
%TO.P,H2,1*%
%TO.N,N/C*%
X150876000Y-124206000D03*
X148844000Y-126238000D03*
X148844000Y-122174000D03*
X150368000Y-125730000D03*
X150368000Y-122682000D03*
X146812000Y-124206000D03*
X147320000Y-122682000D03*
D15*
X148844000Y-124206000D03*
D14*
X147320000Y-125730000D03*
%TD*%
D18*
%TO.P,D2,A,A*%
%TO.N,Net-(D2-PadA)*%
X141732000Y-139954000D03*
%TO.P,D2,K,C*%
%TO.N,Net-(D2-PadK)*%
X139192000Y-139954000D03*
%TD*%
D13*
%TO.P,C2,1,1*%
%TO.N,VCCIO*%
X144526000Y-139659360D03*
%TO.P,C2,2,2*%
%TO.N,GND*%
X144526000Y-134660640D03*
%TD*%
D18*
%TO.P,J2,1,1*%
%TO.N,/3V3OUT*%
X121666000Y-139700000D03*
%TO.P,J2,2,2*%
%TO.N,VCCIO*%
X121666000Y-137160000D03*
%TO.P,J2,3,3*%
%TO.N,/VCC*%
X121666000Y-134620000D03*
%TD*%
%TO.P,R2,P$1,1*%
%TO.N,Net-(D2-PadA)*%
X134620000Y-146558000D03*
%TO.P,R2,P$2,2*%
%TO.N,VCCIO*%
X142240000Y-146558000D03*
%TD*%
D21*
%TO.P,C5,+,+*%
%TO.N,/VCC*%
X121371360Y-128270000D03*
D22*
%TO.P,C5,-,-*%
%TO.N,GND*%
X116372640Y-128270000D03*
%TD*%
D14*
%TO.P,H3,1*%
%TO.N,N/C*%
X106426000Y-122682000D03*
X104902000Y-126238000D03*
X104902000Y-122174000D03*
X102870000Y-124206000D03*
X103378000Y-122682000D03*
X103378000Y-125730000D03*
X106426000Y-125730000D03*
D15*
X104902000Y-124206000D03*
D14*
X106934000Y-124206000D03*
%TD*%
D18*
%TO.P,D1,A,A*%
%TO.N,Net-(D1-PadA)*%
X141732000Y-134112000D03*
%TO.P,D1,K,C*%
%TO.N,Net-(D1-PadK)*%
X139192000Y-134112000D03*
%TD*%
D23*
%TO.N,VCCIO*%
X128270000Y-142748000D03*
%TO.N,GND*%
X130810000Y-136398000D03*
X132842000Y-136398000D03*
X128778000Y-136398000D03*
X130556000Y-142494000D03*
%TO.N,Net-(R3-PadP$1)*%
X134620000Y-143510000D03*
%TO.N,/3V3OUT*%
X133604000Y-135128000D03*
%TO.N,/VCC*%
X131572000Y-135128000D03*
X131318000Y-131572000D03*
%TD*%
D24*
%TO.N,VCCIO*%
X126746000Y-138176000D02*
X126746000Y-141224000D01*
X128778000Y-148336000D02*
X128778000Y-143256000D01*
X142240000Y-149352000D02*
X142240000Y-146558000D01*
X142240000Y-149860000D02*
X140462000Y-151638000D01*
X128270000Y-142748000D02*
X126746000Y-141224000D01*
X140462000Y-151638000D02*
X132080000Y-151638000D01*
X144526000Y-139700000D02*
X144272000Y-139954000D01*
X142240000Y-149352000D02*
X142240000Y-149860000D01*
X144526000Y-139659360D02*
X144526000Y-139700000D01*
X121666000Y-137160000D02*
X125730000Y-137160000D01*
X125730000Y-137160000D02*
X126746000Y-138176000D01*
X132080000Y-151638000D02*
X128778000Y-148336000D01*
X144272000Y-139954000D02*
X144272000Y-144526000D01*
X128778000Y-143256000D02*
X128270000Y-142748000D01*
X144272000Y-144526000D02*
X142240000Y-146558000D01*
%TO.N,GND*%
X130048000Y-143002000D02*
X132842000Y-140208000D01*
X142788640Y-136398000D02*
X144526000Y-134660640D01*
X112014000Y-130810000D02*
X114554000Y-128270000D01*
X110677960Y-138409680D02*
X108945680Y-138409680D01*
X116078000Y-134660640D02*
X112227360Y-130810000D01*
X144526000Y-133350000D02*
X144526000Y-134660640D01*
X114554000Y-128270000D02*
X116372640Y-128270000D01*
X116372640Y-128270000D02*
X118150640Y-126492000D01*
X107950000Y-137414000D02*
X107950000Y-134874000D01*
X132842000Y-136398000D02*
X128778000Y-136398000D01*
X118150640Y-126492000D02*
X128524000Y-126492000D01*
X147320000Y-130810000D02*
X148336000Y-130810000D01*
X130048000Y-146304000D02*
X130048000Y-143002000D01*
X108945680Y-138409680D02*
X107950000Y-137414000D01*
X144780000Y-133350000D02*
X147320000Y-130810000D01*
X128524000Y-126492000D02*
X130556000Y-128524000D01*
X141732000Y-130556000D02*
X144526000Y-133350000D01*
X130556000Y-128524000D02*
X132588000Y-130556000D01*
X132842000Y-140208000D02*
X132842000Y-136398000D01*
X132588000Y-130556000D02*
X141732000Y-130556000D01*
X112227360Y-130810000D02*
X112014000Y-130810000D01*
X144526000Y-133350000D02*
X144780000Y-133350000D01*
X107950000Y-134874000D02*
X112014000Y-130810000D01*
X130556000Y-146812000D02*
X130048000Y-146304000D01*
X132842000Y-136398000D02*
X142788640Y-136398000D01*
D25*
%TO.N,Net-(R3-PadP$1)*%
X132842000Y-145288000D02*
X134620000Y-143510000D01*
X132842000Y-147574000D02*
X132842000Y-145288000D01*
X134620000Y-149352000D02*
X132842000Y-147574000D01*
D24*
%TO.N,/3V3OUT*%
X123698000Y-143002000D02*
X122555000Y-141859000D01*
X119380000Y-138938000D02*
X120142000Y-139700000D01*
X119380000Y-133604000D02*
X119380000Y-138938000D01*
X133604000Y-135128000D02*
X131318000Y-132842000D01*
X125557280Y-144861280D02*
X123698000Y-143002000D01*
X122555000Y-140589000D02*
X122555000Y-141859000D01*
X131318000Y-132842000D02*
X120142000Y-132842000D01*
X121666000Y-139700000D02*
X122555000Y-140589000D01*
X120142000Y-139700000D02*
X121666000Y-139700000D01*
X125557280Y-146812000D02*
X125557280Y-144861280D01*
X120142000Y-132842000D02*
X119380000Y-133604000D01*
%TO.N,/VCC*%
X128270000Y-128524000D02*
X125557280Y-128524000D01*
X131572000Y-135128000D02*
X122174000Y-135128000D01*
X122174000Y-135128000D02*
X121666000Y-134620000D01*
X131318000Y-131572000D02*
X128270000Y-128524000D01*
D25*
%TO.N,Net-(D2-PadA)*%
X141732000Y-140970000D02*
X141732000Y-139954000D01*
X134620000Y-146558000D02*
X136144000Y-146558000D01*
X136144000Y-146558000D02*
X141732000Y-140970000D01*
%TD*%
%TA.AperFunction,Conductor*%
%TO.N,GND*%
G36*
X146503868Y-121940502D02*
G01*
X146550361Y-121994158D01*
X146560465Y-122064432D01*
X146528792Y-122131462D01*
X146431289Y-122238241D01*
X146226982Y-122519447D01*
X146055293Y-122821674D01*
X145918363Y-123141155D01*
X145817899Y-123473909D01*
X145755152Y-123815788D01*
X145754906Y-123819304D01*
X145754906Y-123819305D01*
X145751888Y-123862462D01*
X145730905Y-124162530D01*
X145745461Y-124509814D01*
X145798637Y-124853312D01*
X145889771Y-125188741D01*
X146017727Y-125511921D01*
X146180911Y-125818824D01*
X146182896Y-125821723D01*
X146375296Y-126102718D01*
X146375301Y-126102724D01*
X146377287Y-126105625D01*
X146604409Y-126368748D01*
X146859445Y-126604914D01*
X146862267Y-126606995D01*
X146862270Y-126606997D01*
X146956740Y-126676646D01*
X147139218Y-126811180D01*
X147142255Y-126812934D01*
X147142259Y-126812936D01*
X147258909Y-126880284D01*
X147440239Y-126984975D01*
X147525492Y-127022221D01*
X147755535Y-127122725D01*
X147755538Y-127122726D01*
X147758756Y-127124132D01*
X147762113Y-127125171D01*
X147762118Y-127125173D01*
X148087441Y-127225877D01*
X148090801Y-127226917D01*
X148094257Y-127227576D01*
X148094256Y-127227576D01*
X148428782Y-127291390D01*
X148428787Y-127291391D01*
X148432233Y-127292048D01*
X148622742Y-127306707D01*
X148775301Y-127318446D01*
X148775302Y-127318446D01*
X148778798Y-127318715D01*
X148998260Y-127311051D01*
X149122660Y-127306707D01*
X149122664Y-127306707D01*
X149126175Y-127306584D01*
X149188621Y-127297363D01*
X149466544Y-127256324D01*
X149466550Y-127256323D01*
X149470036Y-127255808D01*
X149473440Y-127254909D01*
X149473443Y-127254908D01*
X149802685Y-127167918D01*
X149802694Y-127167915D01*
X149806093Y-127167017D01*
X149954335Y-127109518D01*
X150126878Y-127042594D01*
X150126884Y-127042591D01*
X150130159Y-127041321D01*
X150133266Y-127039697D01*
X150133272Y-127039694D01*
X150435085Y-126881909D01*
X150435087Y-126881908D01*
X150438193Y-126880284D01*
X150441105Y-126878320D01*
X150723443Y-126687882D01*
X150723453Y-126687875D01*
X150726358Y-126685915D01*
X150729036Y-126683636D01*
X150921837Y-126519549D01*
X150986677Y-126490631D01*
X151056858Y-126501359D01*
X151110099Y-126548327D01*
X151129500Y-126615503D01*
X151129500Y-147705916D01*
X151109498Y-147774037D01*
X151055842Y-147820530D01*
X150985568Y-147830634D01*
X150919190Y-147799552D01*
X150870276Y-147755509D01*
X150845609Y-147733299D01*
X150797485Y-147689968D01*
X150797482Y-147689966D01*
X150794867Y-147687611D01*
X150792017Y-147685570D01*
X150792010Y-147685565D01*
X150515096Y-147487314D01*
X150515093Y-147487312D01*
X150512242Y-147485271D01*
X150208824Y-147315696D01*
X149888394Y-147181000D01*
X149885025Y-147180009D01*
X149885021Y-147180007D01*
X149733839Y-147135512D01*
X149554947Y-147082861D01*
X149212639Y-147022503D01*
X149209130Y-147022282D01*
X149209128Y-147022282D01*
X148869253Y-147000899D01*
X148869247Y-147000899D01*
X148865735Y-147000678D01*
X148768057Y-147005455D01*
X148522068Y-147017486D01*
X148522060Y-147017487D01*
X148518561Y-147017658D01*
X148515093Y-147018220D01*
X148515090Y-147018220D01*
X148178918Y-147072667D01*
X148178915Y-147072668D01*
X148175443Y-147073230D01*
X148172056Y-147074176D01*
X148172050Y-147074177D01*
X147983535Y-147126812D01*
X147840659Y-147166704D01*
X147737317Y-147208457D01*
X147521644Y-147295594D01*
X147521640Y-147295596D01*
X147518380Y-147296913D01*
X147515293Y-147298582D01*
X147515289Y-147298584D01*
X147480462Y-147317415D01*
X147212623Y-147462235D01*
X146927201Y-147660609D01*
X146924559Y-147662922D01*
X146924555Y-147662925D01*
X146767495Y-147800421D01*
X146665670Y-147889562D01*
X146663295Y-147892163D01*
X146457026Y-148118056D01*
X146431289Y-148146241D01*
X146226982Y-148427447D01*
X146225240Y-148430513D01*
X146225239Y-148430515D01*
X146212380Y-148453151D01*
X146055293Y-148729674D01*
X145918363Y-149049155D01*
X145879467Y-149177987D01*
X145825441Y-149356930D01*
X145817899Y-149381909D01*
X145755152Y-149723788D01*
X145754906Y-149727304D01*
X145754906Y-149727305D01*
X145751888Y-149770462D01*
X145730905Y-150070530D01*
X145745461Y-150417814D01*
X145745999Y-150421288D01*
X145791690Y-150716434D01*
X145798637Y-150761312D01*
X145799559Y-150764704D01*
X145799559Y-150764706D01*
X145817287Y-150829954D01*
X145889771Y-151096741D01*
X146017727Y-151419921D01*
X146180911Y-151726824D01*
X146182896Y-151729723D01*
X146375296Y-152010718D01*
X146375301Y-152010724D01*
X146377287Y-152013625D01*
X146379590Y-152016293D01*
X146530539Y-152191169D01*
X146559909Y-152255806D01*
X146549672Y-152326060D01*
X146503077Y-152379627D01*
X146435158Y-152399500D01*
X141083894Y-152399500D01*
X141015773Y-152379498D01*
X140969280Y-152325842D01*
X140959176Y-152255568D01*
X140992421Y-152186847D01*
X141007988Y-152170414D01*
X141010366Y-152167972D01*
X142269134Y-150909204D01*
X142331446Y-150875178D01*
X142348343Y-150872687D01*
X142479222Y-150862387D01*
X142484029Y-150861233D01*
X142484035Y-150861232D01*
X142630963Y-150825957D01*
X142712553Y-150806369D01*
X142717126Y-150804475D01*
X142929677Y-150716434D01*
X142929679Y-150716433D01*
X142934249Y-150714540D01*
X143138849Y-150589160D01*
X143321318Y-150433318D01*
X143477160Y-150250849D01*
X143602540Y-150046249D01*
X143694369Y-149824553D01*
X143719393Y-149720322D01*
X143749232Y-149596035D01*
X143749233Y-149596029D01*
X143750387Y-149591222D01*
X143769214Y-149352000D01*
X143750387Y-149112778D01*
X143749233Y-149107971D01*
X143749232Y-149107965D01*
X143695524Y-148884259D01*
X143694369Y-148879447D01*
X143671760Y-148824864D01*
X143604434Y-148662323D01*
X143604433Y-148662321D01*
X143602540Y-148657751D01*
X143477160Y-148453151D01*
X143321318Y-148270682D01*
X143138849Y-148114840D01*
X143134634Y-148112257D01*
X143134623Y-148112249D01*
X143062665Y-148068153D01*
X143015034Y-148015506D01*
X143002500Y-147960721D01*
X143002500Y-147858088D01*
X143022502Y-147789967D01*
X143055331Y-147755510D01*
X143178020Y-147667997D01*
X143346716Y-147499889D01*
X143350244Y-147494980D01*
X143409939Y-147411905D01*
X143485690Y-147306486D01*
X143489596Y-147298584D01*
X143588917Y-147097624D01*
X143588918Y-147097622D01*
X143591211Y-147092982D01*
X143660443Y-146865111D01*
X143666174Y-146821580D01*
X143691092Y-146632313D01*
X143691092Y-146632309D01*
X143691529Y-146628992D01*
X143692603Y-146585036D01*
X143693182Y-146561365D01*
X143693182Y-146561361D01*
X143693264Y-146558000D01*
X143673750Y-146320644D01*
X143672490Y-146315629D01*
X143672489Y-146315621D01*
X143667452Y-146295571D01*
X143670254Y-146224630D01*
X143700560Y-146175778D01*
X144763528Y-145112810D01*
X144777941Y-145100423D01*
X144789665Y-145091795D01*
X144795564Y-145087454D01*
X144829979Y-145046945D01*
X144836909Y-145039429D01*
X144842653Y-145033685D01*
X144844927Y-145030811D01*
X144844933Y-145030804D01*
X144860372Y-145011289D01*
X144863163Y-145007885D01*
X144905945Y-144957528D01*
X144905948Y-144957524D01*
X144910684Y-144951949D01*
X144914012Y-144945432D01*
X144917389Y-144940368D01*
X144920616Y-144935144D01*
X144925160Y-144929400D01*
X144941094Y-144895307D01*
X144956232Y-144862918D01*
X144958163Y-144858967D01*
X144981575Y-144813117D01*
X144991543Y-144793596D01*
X144993284Y-144786481D01*
X144995421Y-144780735D01*
X144997345Y-144774952D01*
X145000444Y-144768321D01*
X145015394Y-144696443D01*
X145016363Y-144692162D01*
X145032470Y-144626339D01*
X145033804Y-144620888D01*
X145034500Y-144609670D01*
X145034539Y-144609672D01*
X145034772Y-144605771D01*
X145035161Y-144601412D01*
X145036652Y-144594244D01*
X145034546Y-144516423D01*
X145034500Y-144513014D01*
X145034500Y-143474494D01*
X146883170Y-143474494D01*
X146883467Y-143479646D01*
X146883467Y-143479650D01*
X146889502Y-143584313D01*
X146896879Y-143712255D01*
X146898016Y-143717301D01*
X146898017Y-143717307D01*
X146929770Y-143858203D01*
X146949237Y-143944585D01*
X146951179Y-143949367D01*
X146951180Y-143949371D01*
X147032680Y-144150082D01*
X147038837Y-144165244D01*
X147163274Y-144368306D01*
X147319204Y-144548317D01*
X147413182Y-144626339D01*
X147495042Y-144694300D01*
X147502442Y-144700444D01*
X147506894Y-144703046D01*
X147506899Y-144703049D01*
X147695258Y-144813117D01*
X147708065Y-144820601D01*
X147930552Y-144905560D01*
X147935618Y-144906591D01*
X147935619Y-144906591D01*
X147950930Y-144909706D01*
X148163928Y-144953041D01*
X148298121Y-144957962D01*
X148396760Y-144961579D01*
X148396764Y-144961579D01*
X148401924Y-144961768D01*
X148407044Y-144961112D01*
X148407046Y-144961112D01*
X148633023Y-144932164D01*
X148633024Y-144932164D01*
X148638151Y-144931507D01*
X148647654Y-144928656D01*
X148861316Y-144864554D01*
X148861317Y-144864553D01*
X148866262Y-144863070D01*
X149080133Y-144758295D01*
X149084336Y-144755297D01*
X149084341Y-144755294D01*
X149269816Y-144622996D01*
X149269818Y-144622994D01*
X149274020Y-144619997D01*
X149442716Y-144451889D01*
X149581690Y-144258486D01*
X149605574Y-144210162D01*
X149684917Y-144049624D01*
X149684918Y-144049622D01*
X149687211Y-144044982D01*
X149756443Y-143817111D01*
X149766592Y-143740026D01*
X149787092Y-143584313D01*
X149787092Y-143584309D01*
X149787529Y-143580992D01*
X149788693Y-143533382D01*
X149789182Y-143513365D01*
X149789182Y-143513361D01*
X149789264Y-143510000D01*
X149769750Y-143272644D01*
X149711731Y-143041663D01*
X149645923Y-142890314D01*
X149618827Y-142827996D01*
X149618825Y-142827993D01*
X149616767Y-142823259D01*
X149599694Y-142796867D01*
X149533429Y-142694438D01*
X149487406Y-142623298D01*
X149460450Y-142593673D01*
X149373512Y-142498130D01*
X149327124Y-142447150D01*
X149323073Y-142443951D01*
X149323069Y-142443947D01*
X149205927Y-142351435D01*
X149189347Y-142338341D01*
X149148285Y-142280425D01*
X149145053Y-142209502D01*
X149180678Y-142148091D01*
X149194271Y-142136882D01*
X149269814Y-142082998D01*
X149269821Y-142082992D01*
X149274020Y-142079997D01*
X149442716Y-141911889D01*
X149581690Y-141718486D01*
X149593011Y-141695581D01*
X149684917Y-141509624D01*
X149684918Y-141509622D01*
X149687211Y-141504982D01*
X149750435Y-141296887D01*
X149754941Y-141282055D01*
X149754941Y-141282054D01*
X149756443Y-141277111D01*
X149757118Y-141271985D01*
X149787092Y-141044313D01*
X149787092Y-141044309D01*
X149787529Y-141040992D01*
X149788016Y-141021067D01*
X149789182Y-140973365D01*
X149789182Y-140973361D01*
X149789264Y-140970000D01*
X149769750Y-140732644D01*
X149718703Y-140529421D01*
X149712990Y-140506675D01*
X149712990Y-140506674D01*
X149711731Y-140501663D01*
X149642022Y-140341341D01*
X149618827Y-140287996D01*
X149618825Y-140287993D01*
X149616767Y-140283259D01*
X149607818Y-140269425D01*
X149509440Y-140117358D01*
X149487406Y-140083298D01*
X149327124Y-139907150D01*
X149323073Y-139903951D01*
X149323069Y-139903947D01*
X149189348Y-139798342D01*
X149148285Y-139740425D01*
X149145053Y-139669502D01*
X149180678Y-139608091D01*
X149194271Y-139596882D01*
X149269814Y-139542998D01*
X149269821Y-139542992D01*
X149274020Y-139539997D01*
X149442716Y-139371889D01*
X149462072Y-139344953D01*
X149512972Y-139274117D01*
X149581690Y-139178486D01*
X149613924Y-139113267D01*
X149684917Y-138969624D01*
X149684918Y-138969622D01*
X149687211Y-138964982D01*
X149756443Y-138737111D01*
X149757118Y-138731985D01*
X149787092Y-138504313D01*
X149787092Y-138504309D01*
X149787529Y-138500992D01*
X149789264Y-138430000D01*
X149769750Y-138192644D01*
X149711731Y-137961663D01*
X149616767Y-137743259D01*
X149599694Y-137716867D01*
X149490216Y-137547642D01*
X149487406Y-137543298D01*
X149327124Y-137367150D01*
X149323073Y-137363951D01*
X149323069Y-137363947D01*
X149189348Y-137258342D01*
X149148285Y-137200425D01*
X149145053Y-137129502D01*
X149180678Y-137068091D01*
X149194271Y-137056882D01*
X149269814Y-137002998D01*
X149269821Y-137002992D01*
X149274020Y-136999997D01*
X149442716Y-136831889D01*
X149581690Y-136638486D01*
X149585048Y-136631693D01*
X149684917Y-136429624D01*
X149684918Y-136429622D01*
X149687211Y-136424982D01*
X149756443Y-136197111D01*
X149770928Y-136087086D01*
X149787092Y-135964313D01*
X149787092Y-135964309D01*
X149787529Y-135960992D01*
X149788722Y-135912187D01*
X149789182Y-135893365D01*
X149789182Y-135893361D01*
X149789264Y-135890000D01*
X149769750Y-135652644D01*
X149711731Y-135421663D01*
X149656363Y-135294324D01*
X149618827Y-135207996D01*
X149618825Y-135207993D01*
X149616767Y-135203259D01*
X149610413Y-135193436D01*
X149517420Y-135049692D01*
X149487406Y-135003298D01*
X149481128Y-134996398D01*
X149391955Y-134898399D01*
X149327124Y-134827150D01*
X149323073Y-134823951D01*
X149323069Y-134823947D01*
X149216252Y-134739589D01*
X149189347Y-134718341D01*
X149148285Y-134660425D01*
X149145053Y-134589502D01*
X149180678Y-134528091D01*
X149194271Y-134516882D01*
X149269814Y-134462998D01*
X149269821Y-134462992D01*
X149274020Y-134459997D01*
X149442716Y-134291889D01*
X149581690Y-134098486D01*
X149627774Y-134005244D01*
X149684917Y-133889624D01*
X149684918Y-133889622D01*
X149687211Y-133884982D01*
X149756443Y-133657111D01*
X149757554Y-133648675D01*
X149787092Y-133424313D01*
X149787092Y-133424309D01*
X149787529Y-133420992D01*
X149787838Y-133408336D01*
X149789182Y-133353365D01*
X149789182Y-133353361D01*
X149789264Y-133350000D01*
X149769750Y-133112644D01*
X149711731Y-132881663D01*
X149635764Y-132706950D01*
X149618827Y-132667996D01*
X149618825Y-132667993D01*
X149616767Y-132663259D01*
X149599694Y-132636867D01*
X149503307Y-132487877D01*
X149487406Y-132463298D01*
X149327124Y-132287150D01*
X149323073Y-132283951D01*
X149323069Y-132283947D01*
X149180932Y-132171695D01*
X149139869Y-132113778D01*
X149136637Y-132042855D01*
X149158406Y-131998113D01*
X149151045Y-131984256D01*
X148348811Y-131182021D01*
X148334868Y-131174408D01*
X148333034Y-131174539D01*
X148326420Y-131178790D01*
X147517083Y-131988128D01*
X147510326Y-132000503D01*
X147510760Y-132001083D01*
X147535572Y-132067603D01*
X147520481Y-132136977D01*
X147485546Y-132177353D01*
X147375275Y-132260147D01*
X147371140Y-132263252D01*
X147206602Y-132435431D01*
X147072394Y-132632172D01*
X146972122Y-132848191D01*
X146908477Y-133077685D01*
X146907928Y-133082819D01*
X146907928Y-133082821D01*
X146904093Y-133118711D01*
X146883170Y-133314494D01*
X146883467Y-133319646D01*
X146883467Y-133319650D01*
X146890282Y-133437838D01*
X146896879Y-133552255D01*
X146898016Y-133557301D01*
X146898017Y-133557307D01*
X146921769Y-133662699D01*
X146949237Y-133784585D01*
X146951179Y-133789367D01*
X146951180Y-133789371D01*
X147016431Y-133950065D01*
X147038837Y-134005244D01*
X147041536Y-134009648D01*
X147156856Y-134197832D01*
X147163274Y-134208306D01*
X147319204Y-134388317D01*
X147401154Y-134456353D01*
X147483560Y-134524768D01*
X147523195Y-134583671D01*
X147524693Y-134654651D01*
X147487578Y-134715174D01*
X147478728Y-134722472D01*
X147410001Y-134774074D01*
X147371140Y-134803252D01*
X147363307Y-134811449D01*
X147211500Y-134970306D01*
X147206602Y-134975431D01*
X147203688Y-134979703D01*
X147203687Y-134979704D01*
X147164278Y-135037476D01*
X147072394Y-135172172D01*
X147070215Y-135176867D01*
X147001475Y-135324956D01*
X146972122Y-135388191D01*
X146908477Y-135617685D01*
X146907928Y-135622819D01*
X146907928Y-135622821D01*
X146904135Y-135658317D01*
X146883170Y-135854494D01*
X146883467Y-135859646D01*
X146883467Y-135859650D01*
X146890372Y-135979400D01*
X146896879Y-136092255D01*
X146898016Y-136097301D01*
X146898017Y-136097307D01*
X146930557Y-136241694D01*
X146949237Y-136324585D01*
X146951179Y-136329367D01*
X146951180Y-136329371D01*
X147029121Y-136521316D01*
X147038837Y-136545244D01*
X147163274Y-136748306D01*
X147319204Y-136928317D01*
X147401154Y-136996353D01*
X147483560Y-137064768D01*
X147523195Y-137123671D01*
X147524693Y-137194651D01*
X147487578Y-137255174D01*
X147478728Y-137262472D01*
X147418144Y-137307960D01*
X147371140Y-137343252D01*
X147206602Y-137515431D01*
X147203688Y-137519703D01*
X147203687Y-137519704D01*
X147184629Y-137547642D01*
X147072394Y-137712172D01*
X147041817Y-137778045D01*
X146974764Y-137922500D01*
X146972122Y-137928191D01*
X146908477Y-138157685D01*
X146907928Y-138162819D01*
X146907928Y-138162821D01*
X146904135Y-138198317D01*
X146883170Y-138394494D01*
X146883467Y-138399646D01*
X146883467Y-138399650D01*
X146891126Y-138532472D01*
X146896879Y-138632255D01*
X146898016Y-138637301D01*
X146898017Y-138637307D01*
X146928843Y-138774088D01*
X146949237Y-138864585D01*
X146951179Y-138869367D01*
X146951180Y-138869371D01*
X147018717Y-139035694D01*
X147038837Y-139085244D01*
X147163274Y-139288306D01*
X147319204Y-139468317D01*
X147399041Y-139534599D01*
X147483560Y-139604768D01*
X147523195Y-139663671D01*
X147524693Y-139734651D01*
X147487578Y-139795174D01*
X147478728Y-139802472D01*
X147375275Y-139880147D01*
X147371140Y-139883252D01*
X147206602Y-140055431D01*
X147203688Y-140059703D01*
X147203687Y-140059704D01*
X147161047Y-140122212D01*
X147072394Y-140252172D01*
X147032237Y-140338684D01*
X146974764Y-140462500D01*
X146972122Y-140468191D01*
X146908477Y-140697685D01*
X146907928Y-140702819D01*
X146907928Y-140702821D01*
X146904135Y-140738317D01*
X146883170Y-140934494D01*
X146883467Y-140939646D01*
X146883467Y-140939650D01*
X146890637Y-141063997D01*
X146896879Y-141172255D01*
X146898016Y-141177301D01*
X146898017Y-141177307D01*
X146927261Y-141307070D01*
X146949237Y-141404585D01*
X146951179Y-141409367D01*
X146951180Y-141409371D01*
X147030640Y-141605057D01*
X147038837Y-141625244D01*
X147163274Y-141828306D01*
X147319204Y-142008317D01*
X147384244Y-142062314D01*
X147483560Y-142144768D01*
X147523195Y-142203671D01*
X147524693Y-142274651D01*
X147487578Y-142335174D01*
X147478728Y-142342472D01*
X147410001Y-142394074D01*
X147371140Y-142423252D01*
X147206602Y-142595431D01*
X147072394Y-142792172D01*
X146972122Y-143008191D01*
X146908477Y-143237685D01*
X146907928Y-143242819D01*
X146907928Y-143242821D01*
X146903657Y-143282792D01*
X146883170Y-143474494D01*
X145034500Y-143474494D01*
X145034500Y-140974420D01*
X145054502Y-140906299D01*
X145107250Y-140860225D01*
X145190561Y-140821377D01*
X145190566Y-140821374D01*
X145195548Y-140819051D01*
X145201608Y-140814808D01*
X145382243Y-140688326D01*
X145382246Y-140688324D01*
X145386754Y-140685167D01*
X145551807Y-140520114D01*
X145557674Y-140511736D01*
X145682534Y-140333417D01*
X145682535Y-140333415D01*
X145685691Y-140328908D01*
X145688015Y-140323924D01*
X145688017Y-140323921D01*
X145782016Y-140122340D01*
X145782017Y-140122338D01*
X145784339Y-140117358D01*
X145789911Y-140096565D01*
X145843328Y-139897207D01*
X145843328Y-139897205D01*
X145844752Y-139891892D01*
X145865096Y-139659360D01*
X145844752Y-139426828D01*
X145840131Y-139409581D01*
X145785762Y-139206672D01*
X145785761Y-139206670D01*
X145784339Y-139201362D01*
X145773672Y-139178486D01*
X145688017Y-138994799D01*
X145688014Y-138994794D01*
X145685691Y-138989812D01*
X145668305Y-138964982D01*
X145554966Y-138803117D01*
X145554964Y-138803114D01*
X145551807Y-138798606D01*
X145386754Y-138633553D01*
X145382246Y-138630396D01*
X145382243Y-138630394D01*
X145200057Y-138502826D01*
X145200055Y-138502825D01*
X145195548Y-138499669D01*
X145190566Y-138497346D01*
X145190561Y-138497343D01*
X144988980Y-138403344D01*
X144988978Y-138403343D01*
X144983998Y-138401021D01*
X144978690Y-138399599D01*
X144978688Y-138399598D01*
X144763847Y-138342032D01*
X144763845Y-138342032D01*
X144758532Y-138340608D01*
X144526000Y-138320264D01*
X144293468Y-138340608D01*
X144288155Y-138342032D01*
X144288153Y-138342032D01*
X144073312Y-138399598D01*
X144073310Y-138399599D01*
X144068002Y-138401021D01*
X144063022Y-138403343D01*
X144063020Y-138403344D01*
X143861439Y-138497343D01*
X143861434Y-138497346D01*
X143856452Y-138499669D01*
X143851945Y-138502825D01*
X143851943Y-138502826D01*
X143669757Y-138630394D01*
X143669754Y-138630396D01*
X143665246Y-138633553D01*
X143500193Y-138798606D01*
X143497036Y-138803114D01*
X143497034Y-138803117D01*
X143383695Y-138964982D01*
X143366309Y-138989812D01*
X143363986Y-138994794D01*
X143363983Y-138994799D01*
X143278328Y-139178486D01*
X143267661Y-139201362D01*
X143266240Y-139206667D01*
X143266237Y-139206674D01*
X143252935Y-139256321D01*
X143215984Y-139316944D01*
X143152124Y-139347966D01*
X143081629Y-139339538D01*
X143026882Y-139294336D01*
X143015681Y-139273959D01*
X143014830Y-139272002D01*
X143014826Y-139271995D01*
X143012767Y-139267259D01*
X142995694Y-139240867D01*
X142933365Y-139144522D01*
X142883406Y-139067298D01*
X142723124Y-138891150D01*
X142719073Y-138887951D01*
X142719069Y-138887947D01*
X142540278Y-138746747D01*
X142540273Y-138746744D01*
X142536224Y-138743546D01*
X142531708Y-138741053D01*
X142531705Y-138741051D01*
X142332250Y-138630946D01*
X142332246Y-138630944D01*
X142327726Y-138628449D01*
X142322857Y-138626725D01*
X142322853Y-138626723D01*
X142108105Y-138550676D01*
X142108101Y-138550675D01*
X142103230Y-138548950D01*
X142098140Y-138548043D01*
X142098135Y-138548042D01*
X141969750Y-138525174D01*
X141868764Y-138507186D01*
X141779637Y-138506097D01*
X141635795Y-138504339D01*
X141635793Y-138504339D01*
X141630625Y-138504276D01*
X141395209Y-138540300D01*
X141168838Y-138614289D01*
X140957590Y-138724258D01*
X140953457Y-138727361D01*
X140953454Y-138727363D01*
X140789807Y-138850233D01*
X140767140Y-138867252D01*
X140754809Y-138880156D01*
X140625697Y-139015264D01*
X140602602Y-139039431D01*
X140571106Y-139085602D01*
X140567186Y-139091349D01*
X140512274Y-139136351D01*
X140441749Y-139144522D01*
X140378002Y-139113267D01*
X140357306Y-139088784D01*
X140346217Y-139071642D01*
X140346212Y-139071636D01*
X140343406Y-139067298D01*
X140183124Y-138891150D01*
X140179073Y-138887951D01*
X140179069Y-138887947D01*
X140000278Y-138746747D01*
X140000273Y-138746744D01*
X139996224Y-138743546D01*
X139991708Y-138741053D01*
X139991705Y-138741051D01*
X139792250Y-138630946D01*
X139792246Y-138630944D01*
X139787726Y-138628449D01*
X139782857Y-138626725D01*
X139782853Y-138626723D01*
X139568105Y-138550676D01*
X139568101Y-138550675D01*
X139563230Y-138548950D01*
X139558140Y-138548043D01*
X139558135Y-138548042D01*
X139429750Y-138525174D01*
X139328764Y-138507186D01*
X139239637Y-138506097D01*
X139095795Y-138504339D01*
X139095793Y-138504339D01*
X139090625Y-138504276D01*
X138855209Y-138540300D01*
X138628838Y-138614289D01*
X138417590Y-138724258D01*
X138413457Y-138727361D01*
X138413454Y-138727363D01*
X138249807Y-138850233D01*
X138227140Y-138867252D01*
X138214809Y-138880156D01*
X138085697Y-139015264D01*
X138062602Y-139039431D01*
X138059691Y-139043699D01*
X138059687Y-139043704D01*
X138028346Y-139089648D01*
X137928394Y-139236172D01*
X137890901Y-139316944D01*
X137838221Y-139430435D01*
X137828122Y-139452191D01*
X137764477Y-139681685D01*
X137739170Y-139918494D01*
X137739467Y-139923646D01*
X137739467Y-139923650D01*
X137745827Y-140033951D01*
X137752879Y-140156255D01*
X137754016Y-140161301D01*
X137754017Y-140161307D01*
X137779952Y-140276386D01*
X137805237Y-140388585D01*
X137807179Y-140393367D01*
X137807180Y-140393371D01*
X137873913Y-140557715D01*
X137894837Y-140609244D01*
X138019274Y-140812306D01*
X138175204Y-140992317D01*
X138358442Y-141144444D01*
X138362894Y-141147046D01*
X138362899Y-141147049D01*
X138559607Y-141261996D01*
X138564065Y-141264601D01*
X138786552Y-141349560D01*
X138791618Y-141350591D01*
X138791619Y-141350591D01*
X138845956Y-141361646D01*
X139019928Y-141397041D01*
X139154121Y-141401962D01*
X139252760Y-141405579D01*
X139252764Y-141405579D01*
X139257924Y-141405768D01*
X139263044Y-141405112D01*
X139263046Y-141405112D01*
X139489023Y-141376164D01*
X139489024Y-141376164D01*
X139494151Y-141375507D01*
X139577200Y-141350591D01*
X139717316Y-141308554D01*
X139717317Y-141308553D01*
X139722262Y-141307070D01*
X139936133Y-141202295D01*
X139940336Y-141199297D01*
X139940341Y-141199294D01*
X140125816Y-141066996D01*
X140125818Y-141066994D01*
X140130020Y-141063997D01*
X140298716Y-140895889D01*
X140356979Y-140814807D01*
X140412972Y-140771160D01*
X140483676Y-140764714D01*
X140546640Y-140797516D01*
X140558582Y-140811176D01*
X140559274Y-140812306D01*
X140562655Y-140816209D01*
X140562660Y-140816216D01*
X140682850Y-140954967D01*
X140712333Y-141019552D01*
X140702218Y-141089824D01*
X140676708Y-141126559D01*
X136023259Y-145780008D01*
X135960947Y-145814034D01*
X135890132Y-145808969D01*
X135833296Y-145766422D01*
X135828372Y-145759354D01*
X135801228Y-145717395D01*
X135771406Y-145671298D01*
X135752410Y-145650421D01*
X135663499Y-145552710D01*
X135611124Y-145495150D01*
X135607073Y-145491951D01*
X135607069Y-145491947D01*
X135428278Y-145350747D01*
X135428273Y-145350744D01*
X135424224Y-145347546D01*
X135419708Y-145345053D01*
X135419705Y-145345051D01*
X135220250Y-145234946D01*
X135220246Y-145234944D01*
X135215726Y-145232449D01*
X135210857Y-145230725D01*
X135210853Y-145230723D01*
X134996105Y-145154676D01*
X134996101Y-145154675D01*
X134991230Y-145152950D01*
X134986140Y-145152043D01*
X134986135Y-145152042D01*
X134858814Y-145129364D01*
X134756764Y-145111186D01*
X134667637Y-145110097D01*
X134523795Y-145108339D01*
X134523793Y-145108339D01*
X134518625Y-145108276D01*
X134283209Y-145144300D01*
X134238274Y-145158987D01*
X134191585Y-145174247D01*
X134120621Y-145176398D01*
X134059759Y-145139842D01*
X134028323Y-145076184D01*
X134036293Y-145005636D01*
X134063342Y-144965391D01*
X134631609Y-144397124D01*
X134693919Y-144363100D01*
X134704494Y-144361400D01*
X134709486Y-144361400D01*
X134884546Y-144324190D01*
X134890577Y-144321505D01*
X135042015Y-144254081D01*
X135042017Y-144254080D01*
X135048045Y-144251396D01*
X135053387Y-144247515D01*
X135187492Y-144150082D01*
X135187494Y-144150080D01*
X135192836Y-144146199D01*
X135312591Y-144013197D01*
X135402077Y-143858203D01*
X135457382Y-143687991D01*
X135470605Y-143562190D01*
X135475400Y-143516565D01*
X135476090Y-143510000D01*
X135457382Y-143332009D01*
X135454575Y-143323368D01*
X135408287Y-143180909D01*
X135402077Y-143161797D01*
X135312591Y-143006803D01*
X135192836Y-142873801D01*
X135178792Y-142863597D01*
X135053387Y-142772485D01*
X135053386Y-142772484D01*
X135048045Y-142768604D01*
X135042017Y-142765920D01*
X135042015Y-142765919D01*
X134890577Y-142698495D01*
X134890576Y-142698495D01*
X134884546Y-142695810D01*
X134797016Y-142677205D01*
X134715943Y-142659972D01*
X134715939Y-142659972D01*
X134709486Y-142658600D01*
X134530514Y-142658600D01*
X134524061Y-142659972D01*
X134524057Y-142659972D01*
X134442984Y-142677205D01*
X134355454Y-142695810D01*
X134349424Y-142698495D01*
X134349423Y-142698495D01*
X134197985Y-142765919D01*
X134197983Y-142765920D01*
X134191955Y-142768604D01*
X134186614Y-142772484D01*
X134186613Y-142772485D01*
X134061209Y-142863597D01*
X134047164Y-142873801D01*
X133927409Y-143006803D01*
X133837923Y-143161797D01*
X133831713Y-143180909D01*
X133785426Y-143323368D01*
X133782618Y-143332009D01*
X133781928Y-143338572D01*
X133781928Y-143338573D01*
X133773582Y-143417976D01*
X133746568Y-143483633D01*
X133737367Y-143493900D01*
X132448517Y-144782750D01*
X132440191Y-144790326D01*
X132433697Y-144794447D01*
X132411583Y-144817996D01*
X132386915Y-144844265D01*
X132384160Y-144847107D01*
X132364361Y-144866906D01*
X132361937Y-144870031D01*
X132361929Y-144870040D01*
X132361863Y-144870126D01*
X132354155Y-144879151D01*
X132323783Y-144911494D01*
X132319965Y-144918438D01*
X132319964Y-144918440D01*
X132313978Y-144929329D01*
X132303127Y-144945847D01*
X132290650Y-144961933D01*
X132273024Y-145002666D01*
X132267807Y-145013314D01*
X132246431Y-145052197D01*
X132244460Y-145059872D01*
X132244458Y-145059878D01*
X132241369Y-145071911D01*
X132234966Y-145090613D01*
X132226883Y-145109292D01*
X132225148Y-145120249D01*
X132219940Y-145153127D01*
X132217535Y-145164740D01*
X132206500Y-145207718D01*
X132206500Y-145228065D01*
X132204949Y-145247776D01*
X132201765Y-145267879D01*
X132202511Y-145275771D01*
X132205941Y-145312056D01*
X132206500Y-145323914D01*
X132206500Y-147494980D01*
X132205970Y-147506214D01*
X132204292Y-147513719D01*
X132204541Y-147521638D01*
X132206438Y-147582012D01*
X132206500Y-147585969D01*
X132206500Y-147613983D01*
X132206996Y-147617908D01*
X132206996Y-147617909D01*
X132207008Y-147618004D01*
X132207941Y-147629849D01*
X132209335Y-147674205D01*
X132213230Y-147687611D01*
X132215013Y-147693748D01*
X132219023Y-147713112D01*
X132221573Y-147733299D01*
X132224489Y-147740663D01*
X132224490Y-147740668D01*
X132237907Y-147774556D01*
X132241752Y-147785785D01*
X132254131Y-147828393D01*
X132258169Y-147835220D01*
X132258170Y-147835223D01*
X132264488Y-147845906D01*
X132273188Y-147863664D01*
X132277761Y-147875215D01*
X132277765Y-147875221D01*
X132280681Y-147882588D01*
X132285339Y-147888999D01*
X132285340Y-147889001D01*
X132289939Y-147895331D01*
X132306295Y-147917842D01*
X132306764Y-147918488D01*
X132313281Y-147928410D01*
X132331826Y-147959768D01*
X132331829Y-147959772D01*
X132335866Y-147966598D01*
X132350250Y-147980982D01*
X132363091Y-147996016D01*
X132375058Y-148012487D01*
X132381166Y-148017540D01*
X132409255Y-148040777D01*
X132418035Y-148048767D01*
X133131820Y-148762552D01*
X133165846Y-148824864D01*
X133165244Y-148881059D01*
X133138403Y-148992858D01*
X133110768Y-149107965D01*
X133110767Y-149107971D01*
X133109613Y-149112778D01*
X133090786Y-149352000D01*
X133109613Y-149591222D01*
X133110767Y-149596029D01*
X133110768Y-149596035D01*
X133140607Y-149720322D01*
X133165631Y-149824553D01*
X133257460Y-150046249D01*
X133382840Y-150250849D01*
X133538682Y-150433318D01*
X133721151Y-150589160D01*
X133725376Y-150591749D01*
X133807488Y-150642068D01*
X133855120Y-150694715D01*
X133866726Y-150764757D01*
X133838622Y-150829954D01*
X133779732Y-150869608D01*
X133741653Y-150875500D01*
X132448027Y-150875500D01*
X132379906Y-150855498D01*
X132358932Y-150838595D01*
X129587125Y-148066787D01*
X129553099Y-148004475D01*
X129558164Y-147933659D01*
X129600711Y-147876824D01*
X129667231Y-147852013D01*
X129736605Y-147867104D01*
X129748491Y-147874479D01*
X129882194Y-147968099D01*
X129891690Y-147973582D01*
X130093192Y-148067544D01*
X130103484Y-148071290D01*
X130318241Y-148128834D01*
X130329036Y-148130737D01*
X130550525Y-148150115D01*
X130561475Y-148150115D01*
X130782964Y-148130737D01*
X130793759Y-148128834D01*
X131008516Y-148071290D01*
X131018808Y-148067544D01*
X131220316Y-147973579D01*
X131229802Y-147968101D01*
X131287358Y-147927801D01*
X131295733Y-147917323D01*
X131288665Y-147903875D01*
X130285885Y-146901095D01*
X130251859Y-146838783D01*
X130253694Y-146813132D01*
X130920408Y-146813132D01*
X130920539Y-146814965D01*
X130924790Y-146821580D01*
X131648597Y-147545387D01*
X131660371Y-147551817D01*
X131672387Y-147542520D01*
X131712101Y-147485802D01*
X131717579Y-147476316D01*
X131811544Y-147274808D01*
X131815290Y-147264516D01*
X131872834Y-147049759D01*
X131874737Y-147038964D01*
X131894115Y-146817475D01*
X131894115Y-146806525D01*
X131874737Y-146585036D01*
X131872834Y-146574241D01*
X131815290Y-146359484D01*
X131811544Y-146349192D01*
X131717579Y-146147684D01*
X131712101Y-146138198D01*
X131671801Y-146080642D01*
X131661323Y-146072267D01*
X131647875Y-146079335D01*
X130928022Y-146799188D01*
X130920408Y-146813132D01*
X130253694Y-146813132D01*
X130256924Y-146767968D01*
X130285885Y-146722905D01*
X131289387Y-145719403D01*
X131295817Y-145707629D01*
X131286520Y-145695613D01*
X131229802Y-145655899D01*
X131220316Y-145650421D01*
X131018808Y-145556456D01*
X131008516Y-145552710D01*
X130793759Y-145495166D01*
X130782964Y-145493263D01*
X130561475Y-145473885D01*
X130550525Y-145473885D01*
X130329036Y-145493263D01*
X130318241Y-145495166D01*
X130103484Y-145552710D01*
X130093192Y-145556456D01*
X129891690Y-145650418D01*
X129882194Y-145655901D01*
X129738771Y-145756327D01*
X129671497Y-145779015D01*
X129602636Y-145761730D01*
X129554052Y-145709960D01*
X129540500Y-145653114D01*
X129540500Y-143323368D01*
X129541933Y-143304417D01*
X129544123Y-143290024D01*
X129544123Y-143290022D01*
X129545223Y-143282792D01*
X129543990Y-143267625D01*
X129540915Y-143229825D01*
X129540500Y-143219611D01*
X129540500Y-143211475D01*
X129537190Y-143183084D01*
X129536757Y-143178709D01*
X129531403Y-143112872D01*
X129531402Y-143112869D01*
X129530809Y-143105573D01*
X129528554Y-143098611D01*
X129527354Y-143092607D01*
X129525948Y-143086660D01*
X129525101Y-143079393D01*
X129500053Y-143010387D01*
X129498625Y-143006227D01*
X129478268Y-142943387D01*
X129478266Y-142943382D01*
X129476012Y-142936425D01*
X129472218Y-142930173D01*
X129469666Y-142924598D01*
X129466930Y-142919135D01*
X129464434Y-142912259D01*
X129444490Y-142881840D01*
X129424181Y-142850863D01*
X129421834Y-142847144D01*
X129410215Y-142827996D01*
X129383772Y-142784419D01*
X129376332Y-142775994D01*
X129376360Y-142775969D01*
X129373766Y-142773044D01*
X129370961Y-142769690D01*
X129366946Y-142763565D01*
X129310413Y-142710011D01*
X129307972Y-142707634D01*
X129098468Y-142498130D01*
X129067730Y-142447972D01*
X129066422Y-142443947D01*
X129052077Y-142399797D01*
X128962591Y-142244803D01*
X128930233Y-142208865D01*
X128847258Y-142116712D01*
X128847257Y-142116711D01*
X128842836Y-142111801D01*
X128832935Y-142104607D01*
X128703387Y-142010485D01*
X128703386Y-142010484D01*
X128698045Y-142006604D01*
X128692019Y-142003921D01*
X128692012Y-142003917D01*
X128555161Y-141942988D01*
X128517314Y-141916976D01*
X127545405Y-140945067D01*
X127511379Y-140882755D01*
X127508500Y-140855972D01*
X127508500Y-138243376D01*
X127509933Y-138224426D01*
X127512124Y-138210027D01*
X127512124Y-138210021D01*
X127513224Y-138202792D01*
X127512543Y-138194410D01*
X127508915Y-138149817D01*
X127508500Y-138139602D01*
X127508500Y-138131475D01*
X127505189Y-138103076D01*
X127504760Y-138098736D01*
X127504675Y-138097684D01*
X127498809Y-138025574D01*
X127496553Y-138018612D01*
X127495357Y-138012624D01*
X127493949Y-138006667D01*
X127493101Y-137999393D01*
X127490603Y-137992511D01*
X127490602Y-137992507D01*
X127468055Y-137930393D01*
X127466645Y-137926289D01*
X127444013Y-137856425D01*
X127440213Y-137850162D01*
X127437675Y-137844620D01*
X127434933Y-137839144D01*
X127432434Y-137832259D01*
X127392185Y-137770868D01*
X127389870Y-137767200D01*
X127351773Y-137704419D01*
X127344333Y-137695995D01*
X127344362Y-137695969D01*
X127341762Y-137693038D01*
X127338958Y-137689684D01*
X127334946Y-137683565D01*
X127278413Y-137630011D01*
X127275972Y-137627634D01*
X126316810Y-136668472D01*
X126304423Y-136654059D01*
X126295795Y-136642335D01*
X126291454Y-136636436D01*
X126250945Y-136602021D01*
X126243429Y-136595091D01*
X126237685Y-136589347D01*
X126234811Y-136587073D01*
X126234804Y-136587067D01*
X126215289Y-136571628D01*
X126211885Y-136568837D01*
X126161528Y-136526055D01*
X126161524Y-136526052D01*
X126155949Y-136521316D01*
X126149432Y-136517988D01*
X126144368Y-136514611D01*
X126139144Y-136511384D01*
X126133400Y-136506840D01*
X126085408Y-136484410D01*
X126066918Y-136475768D01*
X126062967Y-136473837D01*
X126004117Y-136443787D01*
X125997596Y-136440457D01*
X125990481Y-136438716D01*
X125984735Y-136436579D01*
X125978952Y-136434655D01*
X125972321Y-136431556D01*
X125900443Y-136416606D01*
X125896171Y-136415639D01*
X125824888Y-136398196D01*
X125819289Y-136397849D01*
X125819285Y-136397848D01*
X125813670Y-136397500D01*
X125813672Y-136397461D01*
X125809771Y-136397228D01*
X125805412Y-136396839D01*
X125798244Y-136395348D01*
X125790927Y-136395546D01*
X125720423Y-136397454D01*
X125717014Y-136397500D01*
X122966311Y-136397500D01*
X122898190Y-136377498D01*
X122860519Y-136339940D01*
X122820217Y-136277642D01*
X122820212Y-136277636D01*
X122817406Y-136273298D01*
X122660898Y-136101297D01*
X122629848Y-136037454D01*
X122638243Y-135966955D01*
X122683419Y-135912187D01*
X122754093Y-135890500D01*
X131164573Y-135890500D01*
X131215822Y-135901393D01*
X131268061Y-135924651D01*
X131307454Y-135942190D01*
X131380141Y-135957640D01*
X131476057Y-135978028D01*
X131476061Y-135978028D01*
X131482514Y-135979400D01*
X131661486Y-135979400D01*
X131667939Y-135978028D01*
X131667943Y-135978028D01*
X131763859Y-135957640D01*
X131836546Y-135942190D01*
X131863346Y-135930258D01*
X131994015Y-135872081D01*
X131994017Y-135872080D01*
X132000045Y-135869396D01*
X132027621Y-135849361D01*
X132139492Y-135768082D01*
X132139494Y-135768080D01*
X132144836Y-135764199D01*
X132264591Y-135631197D01*
X132337038Y-135505715D01*
X132350773Y-135481926D01*
X132350774Y-135481925D01*
X132354077Y-135476203D01*
X132379077Y-135399261D01*
X132407342Y-135312270D01*
X132407342Y-135312269D01*
X132409382Y-135305991D01*
X132410072Y-135299427D01*
X132411446Y-135292963D01*
X132413472Y-135293394D01*
X132436772Y-135236765D01*
X132494995Y-135196137D01*
X132565940Y-135193436D01*
X132624162Y-135226500D01*
X132775532Y-135377870D01*
X132806270Y-135428028D01*
X132821923Y-135476203D01*
X132825226Y-135481925D01*
X132825227Y-135481926D01*
X132838962Y-135505715D01*
X132911409Y-135631197D01*
X133031164Y-135764199D01*
X133036506Y-135768080D01*
X133036508Y-135768082D01*
X133148379Y-135849361D01*
X133175955Y-135869396D01*
X133181983Y-135872080D01*
X133181985Y-135872081D01*
X133312654Y-135930258D01*
X133339454Y-135942190D01*
X133412141Y-135957640D01*
X133508057Y-135978028D01*
X133508061Y-135978028D01*
X133514514Y-135979400D01*
X133693486Y-135979400D01*
X133699939Y-135978028D01*
X133699943Y-135978028D01*
X133795859Y-135957640D01*
X133868546Y-135942190D01*
X133895346Y-135930258D01*
X134026015Y-135872081D01*
X134026017Y-135872080D01*
X134032045Y-135869396D01*
X134059621Y-135849361D01*
X134171492Y-135768082D01*
X134171494Y-135768080D01*
X134175718Y-135765011D01*
X143786183Y-135765011D01*
X143795480Y-135777027D01*
X143852198Y-135816741D01*
X143861684Y-135822219D01*
X144063192Y-135916184D01*
X144073484Y-135919930D01*
X144288241Y-135977474D01*
X144299036Y-135979377D01*
X144520525Y-135998755D01*
X144531475Y-135998755D01*
X144752964Y-135979377D01*
X144763759Y-135977474D01*
X144978516Y-135919930D01*
X144988808Y-135916184D01*
X145190316Y-135822219D01*
X145199802Y-135816741D01*
X145257358Y-135776441D01*
X145265733Y-135765963D01*
X145258665Y-135752515D01*
X144538812Y-135032662D01*
X144524868Y-135025048D01*
X144523035Y-135025179D01*
X144516420Y-135029430D01*
X143792613Y-135753237D01*
X143786183Y-135765011D01*
X134175718Y-135765011D01*
X134176836Y-135764199D01*
X134296591Y-135631197D01*
X134369038Y-135505715D01*
X134382773Y-135481926D01*
X134382774Y-135481925D01*
X134386077Y-135476203D01*
X134411077Y-135399261D01*
X134439342Y-135312270D01*
X134439342Y-135312269D01*
X134441382Y-135305991D01*
X134460090Y-135128000D01*
X134452374Y-135054585D01*
X134442072Y-134956573D01*
X134442072Y-134956572D01*
X134441382Y-134950009D01*
X134421106Y-134887604D01*
X134396344Y-134811396D01*
X134386077Y-134779797D01*
X134296591Y-134624803D01*
X134237302Y-134558955D01*
X134181258Y-134496712D01*
X134181257Y-134496711D01*
X134176836Y-134491801D01*
X134137193Y-134462998D01*
X134037387Y-134390485D01*
X134037386Y-134390484D01*
X134032045Y-134386604D01*
X134026017Y-134383920D01*
X134026015Y-134383919D01*
X133889158Y-134322987D01*
X133851312Y-134296975D01*
X133630831Y-134076494D01*
X137739170Y-134076494D01*
X137739467Y-134081646D01*
X137739467Y-134081650D01*
X137746166Y-134197832D01*
X137752879Y-134314255D01*
X137754016Y-134319301D01*
X137754017Y-134319307D01*
X137770058Y-134390485D01*
X137805237Y-134546585D01*
X137807179Y-134551367D01*
X137807180Y-134551371D01*
X137892893Y-134762457D01*
X137894837Y-134767244D01*
X138019274Y-134970306D01*
X138175204Y-135150317D01*
X138358442Y-135302444D01*
X138362894Y-135305046D01*
X138362899Y-135305049D01*
X138526170Y-135400457D01*
X138564065Y-135422601D01*
X138786552Y-135507560D01*
X138791618Y-135508591D01*
X138791619Y-135508591D01*
X138845956Y-135519646D01*
X139019928Y-135555041D01*
X139154121Y-135559962D01*
X139252760Y-135563579D01*
X139252764Y-135563579D01*
X139257924Y-135563768D01*
X139263044Y-135563112D01*
X139263046Y-135563112D01*
X139489023Y-135534164D01*
X139489024Y-135534164D01*
X139494151Y-135533507D01*
X139577200Y-135508591D01*
X139717316Y-135466554D01*
X139717317Y-135466553D01*
X139722262Y-135465070D01*
X139936133Y-135360295D01*
X139940336Y-135357297D01*
X139940341Y-135357294D01*
X140125816Y-135224996D01*
X140125818Y-135224994D01*
X140130020Y-135221997D01*
X140298716Y-135053889D01*
X140356979Y-134972807D01*
X140412972Y-134929160D01*
X140483676Y-134922714D01*
X140546640Y-134955516D01*
X140558582Y-134969176D01*
X140559274Y-134970306D01*
X140715204Y-135150317D01*
X140898442Y-135302444D01*
X140902894Y-135305046D01*
X140902899Y-135305049D01*
X141066170Y-135400457D01*
X141104065Y-135422601D01*
X141326552Y-135507560D01*
X141331618Y-135508591D01*
X141331619Y-135508591D01*
X141385956Y-135519646D01*
X141559928Y-135555041D01*
X141694121Y-135559962D01*
X141792760Y-135563579D01*
X141792764Y-135563579D01*
X141797924Y-135563768D01*
X141803044Y-135563112D01*
X141803046Y-135563112D01*
X142029023Y-135534164D01*
X142029024Y-135534164D01*
X142034151Y-135533507D01*
X142117200Y-135508591D01*
X142257316Y-135466554D01*
X142257317Y-135466553D01*
X142262262Y-135465070D01*
X142476133Y-135360295D01*
X142480336Y-135357297D01*
X142480341Y-135357294D01*
X142665816Y-135224996D01*
X142665818Y-135224994D01*
X142670020Y-135221997D01*
X142838716Y-135053889D01*
X142880028Y-134996398D01*
X142974677Y-134864679D01*
X142977690Y-134860486D01*
X142978507Y-134858834D01*
X143030021Y-134811396D01*
X143099958Y-134799174D01*
X143165400Y-134826702D01*
X143205571Y-134885242D01*
X143207547Y-134893136D01*
X143207742Y-134893084D01*
X143266710Y-135113156D01*
X143270456Y-135123448D01*
X143364421Y-135324956D01*
X143369899Y-135334442D01*
X143410199Y-135391998D01*
X143420677Y-135400373D01*
X143434125Y-135393305D01*
X144153978Y-134673452D01*
X144160356Y-134661772D01*
X144890408Y-134661772D01*
X144890539Y-134663605D01*
X144894790Y-134670220D01*
X145618597Y-135394027D01*
X145630371Y-135400457D01*
X145642387Y-135391160D01*
X145682101Y-135334442D01*
X145687579Y-135324956D01*
X145781544Y-135123448D01*
X145785290Y-135113156D01*
X145842834Y-134898399D01*
X145844737Y-134887604D01*
X145864115Y-134666115D01*
X145864115Y-134655165D01*
X145844737Y-134433676D01*
X145842834Y-134422881D01*
X145785290Y-134208124D01*
X145781544Y-134197832D01*
X145687579Y-133996324D01*
X145682101Y-133986838D01*
X145641801Y-133929282D01*
X145631323Y-133920907D01*
X145617875Y-133927975D01*
X144898022Y-134647828D01*
X144890408Y-134661772D01*
X144160356Y-134661772D01*
X144161592Y-134659508D01*
X144161461Y-134657675D01*
X144157210Y-134651060D01*
X143433403Y-133927253D01*
X143421629Y-133920823D01*
X143409613Y-133930120D01*
X143395647Y-133950065D01*
X143340190Y-133994394D01*
X143269571Y-134001703D01*
X143206211Y-133969673D01*
X143170225Y-133908472D01*
X143166858Y-133888121D01*
X143166174Y-133879803D01*
X143165750Y-133874644D01*
X143107731Y-133643663D01*
X143069318Y-133555317D01*
X143786267Y-133555317D01*
X143793335Y-133568765D01*
X144513188Y-134288618D01*
X144527132Y-134296232D01*
X144528965Y-134296101D01*
X144535580Y-134291850D01*
X145259387Y-133568043D01*
X145265817Y-133556269D01*
X145256520Y-133544253D01*
X145199802Y-133504539D01*
X145190316Y-133499061D01*
X144988808Y-133405096D01*
X144978516Y-133401350D01*
X144763759Y-133343806D01*
X144752964Y-133341903D01*
X144531475Y-133322525D01*
X144520525Y-133322525D01*
X144299036Y-133341903D01*
X144288241Y-133343806D01*
X144073484Y-133401350D01*
X144063192Y-133405096D01*
X143861684Y-133499061D01*
X143852198Y-133504539D01*
X143794642Y-133544839D01*
X143786267Y-133555317D01*
X143069318Y-133555317D01*
X143044857Y-133499061D01*
X143014827Y-133429996D01*
X143014825Y-133429993D01*
X143012767Y-133425259D01*
X142995694Y-133398867D01*
X142929936Y-133297222D01*
X142883406Y-133225298D01*
X142866967Y-133207231D01*
X142789517Y-133122115D01*
X142723124Y-133049150D01*
X142719073Y-133045951D01*
X142719069Y-133045947D01*
X142540278Y-132904747D01*
X142540273Y-132904744D01*
X142536224Y-132901546D01*
X142531708Y-132899053D01*
X142531705Y-132899051D01*
X142332250Y-132788946D01*
X142332246Y-132788944D01*
X142327726Y-132786449D01*
X142322857Y-132784725D01*
X142322853Y-132784723D01*
X142108105Y-132708676D01*
X142108101Y-132708675D01*
X142103230Y-132706950D01*
X142098140Y-132706043D01*
X142098135Y-132706042D01*
X141970814Y-132683364D01*
X141868764Y-132665186D01*
X141779637Y-132664097D01*
X141635795Y-132662339D01*
X141635793Y-132662339D01*
X141630625Y-132662276D01*
X141395209Y-132698300D01*
X141168838Y-132772289D01*
X140957590Y-132882258D01*
X140953457Y-132885361D01*
X140953454Y-132885363D01*
X140771275Y-133022147D01*
X140767140Y-133025252D01*
X140602602Y-133197431D01*
X140580629Y-133229642D01*
X140567186Y-133249349D01*
X140512274Y-133294351D01*
X140441749Y-133302522D01*
X140378002Y-133271267D01*
X140357306Y-133246784D01*
X140346217Y-133229642D01*
X140346212Y-133229636D01*
X140343406Y-133225298D01*
X140326967Y-133207231D01*
X140249517Y-133122115D01*
X140183124Y-133049150D01*
X140179073Y-133045951D01*
X140179069Y-133045947D01*
X140000278Y-132904747D01*
X140000273Y-132904744D01*
X139996224Y-132901546D01*
X139991708Y-132899053D01*
X139991705Y-132899051D01*
X139792250Y-132788946D01*
X139792246Y-132788944D01*
X139787726Y-132786449D01*
X139782857Y-132784725D01*
X139782853Y-132784723D01*
X139568105Y-132708676D01*
X139568101Y-132708675D01*
X139563230Y-132706950D01*
X139558140Y-132706043D01*
X139558135Y-132706042D01*
X139430814Y-132683364D01*
X139328764Y-132665186D01*
X139239637Y-132664097D01*
X139095795Y-132662339D01*
X139095793Y-132662339D01*
X139090625Y-132662276D01*
X138855209Y-132698300D01*
X138628838Y-132772289D01*
X138417590Y-132882258D01*
X138413457Y-132885361D01*
X138413454Y-132885363D01*
X138231275Y-133022147D01*
X138227140Y-133025252D01*
X138062602Y-133197431D01*
X138059691Y-133201699D01*
X138059687Y-133201704D01*
X138012394Y-133271033D01*
X137928394Y-133394172D01*
X137908125Y-133437838D01*
X137830764Y-133604500D01*
X137828122Y-133610191D01*
X137764477Y-133839685D01*
X137739170Y-134076494D01*
X133630831Y-134076494D01*
X131914596Y-132360258D01*
X131880570Y-132297946D01*
X131885635Y-132227130D01*
X131910051Y-132186858D01*
X132010591Y-132075197D01*
X132085789Y-131944950D01*
X132096773Y-131925926D01*
X132096774Y-131925925D01*
X132100077Y-131920203D01*
X132155382Y-131749991D01*
X132168549Y-131624723D01*
X132173400Y-131578565D01*
X132174090Y-131572000D01*
X132155382Y-131394009D01*
X132137783Y-131339843D01*
X132102119Y-131230082D01*
X132100077Y-131223797D01*
X132010591Y-131068803D01*
X131890836Y-130935801D01*
X131767838Y-130846437D01*
X131751387Y-130834485D01*
X131751386Y-130834484D01*
X131746045Y-130830604D01*
X131740019Y-130827921D01*
X131740012Y-130827917D01*
X131631628Y-130779662D01*
X146883969Y-130779662D01*
X146897078Y-131007017D01*
X146898514Y-131017237D01*
X146948580Y-131239393D01*
X146951659Y-131249221D01*
X147037338Y-131460223D01*
X147041991Y-131469434D01*
X147137153Y-131624723D01*
X147147611Y-131634185D01*
X147156387Y-131630402D01*
X147963979Y-130822811D01*
X147970356Y-130811132D01*
X148700408Y-130811132D01*
X148700539Y-130812966D01*
X148704790Y-130819580D01*
X149510826Y-131625615D01*
X149522832Y-131632171D01*
X149534571Y-131623202D01*
X149578241Y-131562429D01*
X149583551Y-131553592D01*
X149684450Y-131349438D01*
X149688249Y-131339843D01*
X149754449Y-131121957D01*
X149756628Y-131111876D01*
X149786591Y-130884288D01*
X149787110Y-130877615D01*
X149788680Y-130813365D01*
X149788486Y-130806646D01*
X149769679Y-130577887D01*
X149767994Y-130567707D01*
X149712515Y-130346837D01*
X149709195Y-130337086D01*
X149618384Y-130128233D01*
X149613518Y-130119158D01*
X149534008Y-129996256D01*
X149523322Y-129987052D01*
X149513755Y-129991456D01*
X148708021Y-130797189D01*
X148700408Y-130811132D01*
X147970356Y-130811132D01*
X147971592Y-130808868D01*
X147971461Y-130807034D01*
X147967210Y-130800420D01*
X147161220Y-129994431D01*
X147149688Y-129988134D01*
X147137407Y-129997756D01*
X147075747Y-130088146D01*
X147070654Y-130097110D01*
X146974768Y-130303679D01*
X146971211Y-130313347D01*
X146910352Y-130532797D01*
X146908421Y-130542916D01*
X146884221Y-130769373D01*
X146883969Y-130779662D01*
X131631628Y-130779662D01*
X131603161Y-130766988D01*
X131565314Y-130740976D01*
X130846663Y-130022325D01*
X130812637Y-129960013D01*
X130817702Y-129889198D01*
X130860249Y-129832362D01*
X130903147Y-129811523D01*
X131008516Y-129783290D01*
X131018808Y-129779544D01*
X131220316Y-129685579D01*
X131229802Y-129680101D01*
X131287358Y-129639801D01*
X131295733Y-129629323D01*
X131288665Y-129615875D01*
X130197922Y-128525132D01*
X130920408Y-128525132D01*
X130920539Y-128526965D01*
X130924790Y-128533580D01*
X131648597Y-129257387D01*
X131660371Y-129263817D01*
X131672387Y-129254520D01*
X131712101Y-129197802D01*
X131717579Y-129188316D01*
X131811544Y-128986808D01*
X131815290Y-128976516D01*
X131872834Y-128761759D01*
X131874737Y-128750964D01*
X131894115Y-128529475D01*
X131894115Y-128518525D01*
X131891488Y-128488494D01*
X133167170Y-128488494D01*
X133167467Y-128493646D01*
X133167467Y-128493650D01*
X133173502Y-128598313D01*
X133180879Y-128726255D01*
X133182016Y-128731301D01*
X133182017Y-128731307D01*
X133215111Y-128878156D01*
X133233237Y-128958585D01*
X133235179Y-128963367D01*
X133235180Y-128963371D01*
X133295799Y-129112657D01*
X133322837Y-129179244D01*
X133447274Y-129382306D01*
X133603204Y-129562317D01*
X133786442Y-129714444D01*
X133790894Y-129717046D01*
X133790899Y-129717049D01*
X133952572Y-129811523D01*
X133992065Y-129834601D01*
X134214552Y-129919560D01*
X134219618Y-129920591D01*
X134219619Y-129920591D01*
X134273956Y-129931646D01*
X134447928Y-129967041D01*
X134582121Y-129971962D01*
X134680760Y-129975579D01*
X134680764Y-129975579D01*
X134685924Y-129975768D01*
X134691044Y-129975112D01*
X134691046Y-129975112D01*
X134917023Y-129946164D01*
X134917024Y-129946164D01*
X134922151Y-129945507D01*
X135005200Y-129920591D01*
X135145316Y-129878554D01*
X135145317Y-129878553D01*
X135150262Y-129877070D01*
X135364133Y-129772295D01*
X135368336Y-129769297D01*
X135368341Y-129769294D01*
X135553816Y-129636996D01*
X135553818Y-129636994D01*
X135558020Y-129633997D01*
X135726716Y-129465889D01*
X135865690Y-129272486D01*
X135873153Y-129257387D01*
X135968917Y-129063624D01*
X135968918Y-129063622D01*
X135971211Y-129058982D01*
X136040443Y-128831111D01*
X136049562Y-128761847D01*
X136071092Y-128598313D01*
X136071092Y-128598309D01*
X136071529Y-128594992D01*
X136073264Y-128524000D01*
X136070345Y-128488494D01*
X140787170Y-128488494D01*
X140787467Y-128493646D01*
X140787467Y-128493650D01*
X140793502Y-128598313D01*
X140800879Y-128726255D01*
X140802016Y-128731301D01*
X140802017Y-128731307D01*
X140835111Y-128878156D01*
X140853237Y-128958585D01*
X140855179Y-128963367D01*
X140855180Y-128963371D01*
X140915799Y-129112657D01*
X140942837Y-129179244D01*
X141067274Y-129382306D01*
X141223204Y-129562317D01*
X141406442Y-129714444D01*
X141410894Y-129717046D01*
X141410899Y-129717049D01*
X141572572Y-129811523D01*
X141612065Y-129834601D01*
X141834552Y-129919560D01*
X141839618Y-129920591D01*
X141839619Y-129920591D01*
X141893956Y-129931646D01*
X142067928Y-129967041D01*
X142202121Y-129971962D01*
X142300760Y-129975579D01*
X142300764Y-129975579D01*
X142305924Y-129975768D01*
X142311044Y-129975112D01*
X142311046Y-129975112D01*
X142537023Y-129946164D01*
X142537024Y-129946164D01*
X142542151Y-129945507D01*
X142625200Y-129920591D01*
X142765316Y-129878554D01*
X142765317Y-129878553D01*
X142770262Y-129877070D01*
X142984133Y-129772295D01*
X142988336Y-129769297D01*
X142988341Y-129769294D01*
X143173816Y-129636996D01*
X143173818Y-129636994D01*
X143178020Y-129633997D01*
X143189773Y-129622285D01*
X147513081Y-129622285D01*
X147519825Y-129634614D01*
X148323189Y-130437979D01*
X148337132Y-130445592D01*
X148338966Y-130445461D01*
X148345580Y-130441210D01*
X149153331Y-129633458D01*
X149160348Y-129620607D01*
X149152574Y-129609937D01*
X149144004Y-129603169D01*
X149135417Y-129597464D01*
X148936055Y-129487410D01*
X148926643Y-129483180D01*
X148711971Y-129407160D01*
X148702014Y-129404530D01*
X148477805Y-129364591D01*
X148467554Y-129363622D01*
X148239830Y-129360840D01*
X148229546Y-129361560D01*
X148004437Y-129396006D01*
X147994410Y-129398395D01*
X147777951Y-129469144D01*
X147768442Y-129473141D01*
X147566451Y-129578292D01*
X147557716Y-129583793D01*
X147521535Y-129610958D01*
X147513081Y-129622285D01*
X143189773Y-129622285D01*
X143346716Y-129465889D01*
X143485690Y-129272486D01*
X143493153Y-129257387D01*
X143588917Y-129063624D01*
X143588918Y-129063622D01*
X143591211Y-129058982D01*
X143660443Y-128831111D01*
X143669562Y-128761847D01*
X143691092Y-128598313D01*
X143691092Y-128598309D01*
X143691529Y-128594992D01*
X143693264Y-128524000D01*
X143673750Y-128286644D01*
X143615731Y-128055663D01*
X143550422Y-127905461D01*
X143522827Y-127841996D01*
X143522825Y-127841993D01*
X143520767Y-127837259D01*
X143503694Y-127810867D01*
X143411108Y-127667753D01*
X143391406Y-127637298D01*
X143231124Y-127461150D01*
X143227073Y-127457951D01*
X143227069Y-127457947D01*
X143048278Y-127316747D01*
X143048273Y-127316744D01*
X143044224Y-127313546D01*
X143039708Y-127311053D01*
X143039705Y-127311051D01*
X142840250Y-127200946D01*
X142840246Y-127200944D01*
X142835726Y-127198449D01*
X142830857Y-127196725D01*
X142830853Y-127196723D01*
X142616105Y-127120676D01*
X142616101Y-127120675D01*
X142611230Y-127118950D01*
X142606140Y-127118043D01*
X142606135Y-127118042D01*
X142478814Y-127095364D01*
X142376764Y-127077186D01*
X142287637Y-127076097D01*
X142143795Y-127074339D01*
X142143793Y-127074339D01*
X142138625Y-127074276D01*
X141903209Y-127110300D01*
X141676838Y-127184289D01*
X141637496Y-127204769D01*
X141539452Y-127255808D01*
X141465590Y-127294258D01*
X141461457Y-127297361D01*
X141461454Y-127297363D01*
X141279275Y-127434147D01*
X141275140Y-127437252D01*
X141110602Y-127609431D01*
X141107688Y-127613703D01*
X141107687Y-127613704D01*
X141043519Y-127707771D01*
X140976394Y-127806172D01*
X140951555Y-127859684D01*
X140887286Y-127998141D01*
X140876122Y-128022191D01*
X140812477Y-128251685D01*
X140811928Y-128256819D01*
X140811928Y-128256821D01*
X140807640Y-128296948D01*
X140787170Y-128488494D01*
X136070345Y-128488494D01*
X136053750Y-128286644D01*
X135995731Y-128055663D01*
X135930422Y-127905461D01*
X135902827Y-127841996D01*
X135902825Y-127841993D01*
X135900767Y-127837259D01*
X135883694Y-127810867D01*
X135791108Y-127667753D01*
X135771406Y-127637298D01*
X135611124Y-127461150D01*
X135607073Y-127457951D01*
X135607069Y-127457947D01*
X135428278Y-127316747D01*
X135428273Y-127316744D01*
X135424224Y-127313546D01*
X135419708Y-127311053D01*
X135419705Y-127311051D01*
X135220250Y-127200946D01*
X135220246Y-127200944D01*
X135215726Y-127198449D01*
X135210857Y-127196725D01*
X135210853Y-127196723D01*
X134996105Y-127120676D01*
X134996101Y-127120675D01*
X134991230Y-127118950D01*
X134986140Y-127118043D01*
X134986135Y-127118042D01*
X134858814Y-127095364D01*
X134756764Y-127077186D01*
X134667637Y-127076097D01*
X134523795Y-127074339D01*
X134523793Y-127074339D01*
X134518625Y-127074276D01*
X134283209Y-127110300D01*
X134056838Y-127184289D01*
X134017496Y-127204769D01*
X133919452Y-127255808D01*
X133845590Y-127294258D01*
X133841457Y-127297361D01*
X133841454Y-127297363D01*
X133659275Y-127434147D01*
X133655140Y-127437252D01*
X133490602Y-127609431D01*
X133487688Y-127613703D01*
X133487687Y-127613704D01*
X133423519Y-127707771D01*
X133356394Y-127806172D01*
X133331555Y-127859684D01*
X133267286Y-127998141D01*
X133256122Y-128022191D01*
X133192477Y-128251685D01*
X133191928Y-128256819D01*
X133191928Y-128256821D01*
X133187640Y-128296948D01*
X133167170Y-128488494D01*
X131891488Y-128488494D01*
X131874737Y-128297036D01*
X131872834Y-128286241D01*
X131815290Y-128071484D01*
X131811544Y-128061192D01*
X131717579Y-127859684D01*
X131712101Y-127850198D01*
X131671801Y-127792642D01*
X131661323Y-127784267D01*
X131647875Y-127791335D01*
X130928022Y-128511188D01*
X130920408Y-128525132D01*
X130197922Y-128525132D01*
X129463403Y-127790613D01*
X129451629Y-127784183D01*
X129439613Y-127793480D01*
X129399899Y-127850198D01*
X129394421Y-127859684D01*
X129300456Y-128061192D01*
X129296710Y-128071484D01*
X129268477Y-128176853D01*
X129231525Y-128237476D01*
X129167665Y-128268497D01*
X129097170Y-128260069D01*
X129057675Y-128233337D01*
X128856810Y-128032472D01*
X128844423Y-128018059D01*
X128835795Y-128006335D01*
X128831454Y-128000436D01*
X128790945Y-127966021D01*
X128783429Y-127959091D01*
X128777685Y-127953347D01*
X128774811Y-127951073D01*
X128774804Y-127951067D01*
X128755289Y-127935628D01*
X128751885Y-127932837D01*
X128701528Y-127890055D01*
X128701524Y-127890052D01*
X128695949Y-127885316D01*
X128689432Y-127881988D01*
X128684368Y-127878611D01*
X128679144Y-127875384D01*
X128673400Y-127870840D01*
X128611685Y-127841996D01*
X128606918Y-127839768D01*
X128602967Y-127837837D01*
X128544117Y-127807787D01*
X128537596Y-127804457D01*
X128530481Y-127802716D01*
X128524735Y-127800579D01*
X128518952Y-127798655D01*
X128512321Y-127795556D01*
X128440443Y-127780606D01*
X128436171Y-127779639D01*
X128364888Y-127762196D01*
X128359289Y-127761849D01*
X128359285Y-127761848D01*
X128353670Y-127761500D01*
X128353672Y-127761461D01*
X128349771Y-127761228D01*
X128345412Y-127760839D01*
X128338244Y-127759348D01*
X128330927Y-127759546D01*
X128260423Y-127761454D01*
X128257014Y-127761500D01*
X126717476Y-127761500D01*
X126649355Y-127741498D01*
X126614265Y-127707773D01*
X126583087Y-127663246D01*
X126418034Y-127498193D01*
X126413526Y-127495036D01*
X126413523Y-127495034D01*
X126304474Y-127418677D01*
X129816267Y-127418677D01*
X129823335Y-127432125D01*
X130543188Y-128151978D01*
X130557132Y-128159592D01*
X130558965Y-128159461D01*
X130565580Y-128155210D01*
X131289387Y-127431403D01*
X131295817Y-127419629D01*
X131286520Y-127407613D01*
X131229802Y-127367899D01*
X131220316Y-127362421D01*
X131018808Y-127268456D01*
X131008516Y-127264710D01*
X130793759Y-127207166D01*
X130782964Y-127205263D01*
X130561475Y-127185885D01*
X130550525Y-127185885D01*
X130329036Y-127205263D01*
X130318241Y-127207166D01*
X130103484Y-127264710D01*
X130093192Y-127268456D01*
X129891684Y-127362421D01*
X129882198Y-127367899D01*
X129824642Y-127408199D01*
X129816267Y-127418677D01*
X126304474Y-127418677D01*
X126231337Y-127367466D01*
X126231335Y-127367465D01*
X126226828Y-127364309D01*
X126221846Y-127361986D01*
X126221841Y-127361983D01*
X126020260Y-127267984D01*
X126020258Y-127267983D01*
X126015278Y-127265661D01*
X126009970Y-127264239D01*
X126009968Y-127264238D01*
X125795127Y-127206672D01*
X125795125Y-127206672D01*
X125789812Y-127205248D01*
X125557280Y-127184904D01*
X125324748Y-127205248D01*
X125319435Y-127206672D01*
X125319433Y-127206672D01*
X125104592Y-127264238D01*
X125104590Y-127264239D01*
X125099282Y-127265661D01*
X125094302Y-127267983D01*
X125094300Y-127267984D01*
X124892719Y-127361983D01*
X124892714Y-127361986D01*
X124887732Y-127364309D01*
X124883225Y-127367465D01*
X124883223Y-127367466D01*
X124701037Y-127495034D01*
X124701034Y-127495036D01*
X124696526Y-127498193D01*
X124531473Y-127663246D01*
X124528317Y-127667753D01*
X124528314Y-127667757D01*
X124409223Y-127837837D01*
X124397589Y-127854452D01*
X124395266Y-127859434D01*
X124395263Y-127859439D01*
X124314576Y-128032472D01*
X124298941Y-128066002D01*
X124297519Y-128071310D01*
X124297518Y-128071312D01*
X124243977Y-128271132D01*
X124238528Y-128291468D01*
X124218184Y-128524000D01*
X124238528Y-128756532D01*
X124239952Y-128761845D01*
X124239952Y-128761847D01*
X124292668Y-128958585D01*
X124298941Y-128981998D01*
X124301263Y-128986978D01*
X124301264Y-128986980D01*
X124395263Y-129188561D01*
X124395266Y-129188566D01*
X124397589Y-129193548D01*
X124400745Y-129198055D01*
X124400746Y-129198057D01*
X124527118Y-129378534D01*
X124531473Y-129384754D01*
X124696526Y-129549807D01*
X124701034Y-129552964D01*
X124701037Y-129552966D01*
X124831127Y-129644056D01*
X124887732Y-129683691D01*
X124892714Y-129686014D01*
X124892719Y-129686017D01*
X125082619Y-129774569D01*
X125099282Y-129782339D01*
X125104590Y-129783761D01*
X125104592Y-129783762D01*
X125319433Y-129841328D01*
X125319435Y-129841328D01*
X125324748Y-129842752D01*
X125557280Y-129863096D01*
X125789812Y-129842752D01*
X125795125Y-129841328D01*
X125795127Y-129841328D01*
X126009968Y-129783762D01*
X126009970Y-129783761D01*
X126015278Y-129782339D01*
X126031941Y-129774569D01*
X126221841Y-129686017D01*
X126221846Y-129686014D01*
X126226828Y-129683691D01*
X126283433Y-129644056D01*
X126413523Y-129552966D01*
X126413526Y-129552964D01*
X126418034Y-129549807D01*
X126583087Y-129384754D01*
X126614264Y-129340228D01*
X126669720Y-129295901D01*
X126717476Y-129286500D01*
X127901972Y-129286500D01*
X127970093Y-129306502D01*
X127991067Y-129323405D01*
X130489532Y-131821870D01*
X130520269Y-131872026D01*
X130534091Y-131914565D01*
X130536119Y-131985530D01*
X130499457Y-132046328D01*
X130435745Y-132077654D01*
X130414258Y-132079500D01*
X120209376Y-132079500D01*
X120190426Y-132078067D01*
X120176027Y-132075876D01*
X120176021Y-132075876D01*
X120168792Y-132074776D01*
X120161500Y-132075369D01*
X120161497Y-132075369D01*
X120115817Y-132079085D01*
X120105602Y-132079500D01*
X120097475Y-132079500D01*
X120093839Y-132079924D01*
X120093837Y-132079924D01*
X120092328Y-132080100D01*
X120069076Y-132082811D01*
X120064756Y-132083238D01*
X119991574Y-132089191D01*
X119984612Y-132091447D01*
X119978624Y-132092643D01*
X119972667Y-132094051D01*
X119965393Y-132094899D01*
X119958511Y-132097397D01*
X119958507Y-132097398D01*
X119896393Y-132119945D01*
X119892289Y-132121355D01*
X119822425Y-132143987D01*
X119816162Y-132147787D01*
X119810620Y-132150325D01*
X119805144Y-132153067D01*
X119798259Y-132155566D01*
X119792135Y-132159581D01*
X119736868Y-132195815D01*
X119733200Y-132198130D01*
X119670419Y-132236227D01*
X119666214Y-132239941D01*
X119666211Y-132239943D01*
X119661995Y-132243667D01*
X119661969Y-132243638D01*
X119659038Y-132246238D01*
X119655684Y-132249042D01*
X119649565Y-132253054D01*
X119620300Y-132283947D01*
X119596012Y-132309586D01*
X119593634Y-132312028D01*
X118888472Y-133017190D01*
X118874059Y-133029577D01*
X118856436Y-133042546D01*
X118850453Y-133049588D01*
X118822021Y-133083055D01*
X118815091Y-133090571D01*
X118809347Y-133096315D01*
X118807073Y-133099189D01*
X118807067Y-133099196D01*
X118791628Y-133118711D01*
X118788837Y-133122115D01*
X118746055Y-133172472D01*
X118746052Y-133172476D01*
X118741316Y-133178051D01*
X118737988Y-133184568D01*
X118734611Y-133189632D01*
X118731384Y-133194856D01*
X118726840Y-133200600D01*
X118723741Y-133207231D01*
X118695768Y-133267082D01*
X118693837Y-133271033D01*
X118660457Y-133336404D01*
X118658716Y-133343519D01*
X118656579Y-133349265D01*
X118654655Y-133355048D01*
X118651556Y-133361679D01*
X118637347Y-133429996D01*
X118636608Y-133433547D01*
X118635639Y-133437829D01*
X118618196Y-133509112D01*
X118617500Y-133520330D01*
X118617461Y-133520328D01*
X118617228Y-133524229D01*
X118616839Y-133528588D01*
X118615348Y-133535756D01*
X118615546Y-133543073D01*
X118617454Y-133613577D01*
X118617500Y-133616986D01*
X118617500Y-138870624D01*
X118616067Y-138889574D01*
X118613876Y-138903973D01*
X118613876Y-138903979D01*
X118612776Y-138911208D01*
X118613369Y-138918500D01*
X118613369Y-138918503D01*
X118617085Y-138964183D01*
X118617500Y-138974398D01*
X118617500Y-138982525D01*
X118620811Y-139010924D01*
X118621238Y-139015244D01*
X118627191Y-139088426D01*
X118629447Y-139095388D01*
X118630643Y-139101376D01*
X118632051Y-139107333D01*
X118632899Y-139114607D01*
X118635397Y-139121489D01*
X118635398Y-139121493D01*
X118657945Y-139183607D01*
X118659355Y-139187711D01*
X118681987Y-139257575D01*
X118685787Y-139263838D01*
X118688325Y-139269380D01*
X118691067Y-139274856D01*
X118693566Y-139281741D01*
X118697581Y-139287865D01*
X118733815Y-139343132D01*
X118736130Y-139346800D01*
X118774227Y-139409581D01*
X118777941Y-139413786D01*
X118777943Y-139413789D01*
X118781667Y-139418005D01*
X118781638Y-139418031D01*
X118784238Y-139420962D01*
X118787042Y-139424316D01*
X118791054Y-139430435D01*
X118825055Y-139462644D01*
X118847586Y-139483988D01*
X118850028Y-139486366D01*
X119555190Y-140191528D01*
X119567577Y-140205941D01*
X119580546Y-140223564D01*
X119586129Y-140228307D01*
X119621055Y-140257979D01*
X119628571Y-140264909D01*
X119634315Y-140270653D01*
X119637189Y-140272927D01*
X119637196Y-140272933D01*
X119656711Y-140288372D01*
X119660115Y-140291163D01*
X119710472Y-140333945D01*
X119710476Y-140333948D01*
X119716051Y-140338684D01*
X119722568Y-140342012D01*
X119727632Y-140345389D01*
X119732856Y-140348616D01*
X119738600Y-140353160D01*
X119805104Y-140384242D01*
X119809001Y-140386147D01*
X119874404Y-140419543D01*
X119881518Y-140421284D01*
X119887252Y-140423416D01*
X119893048Y-140425344D01*
X119899680Y-140428444D01*
X119948382Y-140438574D01*
X119971555Y-140443394D01*
X119975839Y-140444364D01*
X120047112Y-140461804D01*
X120052714Y-140462152D01*
X120052717Y-140462152D01*
X120058330Y-140462500D01*
X120058328Y-140462537D01*
X120062227Y-140462773D01*
X120066598Y-140463163D01*
X120073757Y-140464652D01*
X120151577Y-140462546D01*
X120154986Y-140462500D01*
X120364000Y-140462500D01*
X120432121Y-140482502D01*
X120471432Y-140522665D01*
X120490571Y-140553896D01*
X120490574Y-140553901D01*
X120493274Y-140558306D01*
X120649204Y-140738317D01*
X120790920Y-140855972D01*
X120823181Y-140882755D01*
X120832442Y-140890444D01*
X120836894Y-140893046D01*
X120836899Y-140893049D01*
X121016462Y-140997977D01*
X121038065Y-141010601D01*
X121260552Y-141095560D01*
X121265618Y-141096591D01*
X121265619Y-141096591D01*
X121319956Y-141107646D01*
X121493928Y-141143041D01*
X121671118Y-141149538D01*
X121738459Y-141172022D01*
X121782955Y-141227346D01*
X121792500Y-141275453D01*
X121792500Y-141791624D01*
X121791067Y-141810574D01*
X121788876Y-141824973D01*
X121788876Y-141824979D01*
X121787776Y-141832208D01*
X121788369Y-141839500D01*
X121788369Y-141839503D01*
X121792085Y-141885183D01*
X121792500Y-141895398D01*
X121792500Y-141903525D01*
X121795811Y-141931924D01*
X121796238Y-141936244D01*
X121802191Y-142009426D01*
X121804447Y-142016388D01*
X121805643Y-142022376D01*
X121807051Y-142028333D01*
X121807899Y-142035607D01*
X121810397Y-142042489D01*
X121810398Y-142042493D01*
X121832945Y-142104607D01*
X121834355Y-142108711D01*
X121856987Y-142178575D01*
X121860787Y-142184838D01*
X121863325Y-142190380D01*
X121866067Y-142195856D01*
X121868566Y-142202741D01*
X121872581Y-142208865D01*
X121908815Y-142264132D01*
X121911130Y-142267800D01*
X121949227Y-142330581D01*
X121952941Y-142334786D01*
X121952943Y-142334789D01*
X121956667Y-142339005D01*
X121956638Y-142339031D01*
X121959238Y-142341962D01*
X121962042Y-142345316D01*
X121966054Y-142351435D01*
X121971366Y-142356467D01*
X122022586Y-142404988D01*
X122025028Y-142407366D01*
X124757875Y-145140213D01*
X124791901Y-145202525D01*
X124794780Y-145229308D01*
X124794780Y-145651804D01*
X124774778Y-145719925D01*
X124741053Y-145755015D01*
X124696526Y-145786193D01*
X124531473Y-145951246D01*
X124528316Y-145955754D01*
X124528314Y-145955757D01*
X124454494Y-146061183D01*
X124397589Y-146142452D01*
X124395266Y-146147434D01*
X124395263Y-146147439D01*
X124305548Y-146339833D01*
X124298941Y-146354002D01*
X124238528Y-146579468D01*
X124218184Y-146812000D01*
X124238528Y-147044532D01*
X124239952Y-147049845D01*
X124239952Y-147049847D01*
X124283258Y-147211466D01*
X124298941Y-147269998D01*
X124301263Y-147274978D01*
X124301264Y-147274980D01*
X124395263Y-147476561D01*
X124395266Y-147476566D01*
X124397589Y-147481548D01*
X124400745Y-147486055D01*
X124400746Y-147486057D01*
X124525591Y-147664353D01*
X124531473Y-147672754D01*
X124696526Y-147837807D01*
X124701034Y-147840964D01*
X124701037Y-147840966D01*
X124870704Y-147959768D01*
X124887732Y-147971691D01*
X124892714Y-147974014D01*
X124892719Y-147974017D01*
X125093288Y-148067544D01*
X125099282Y-148070339D01*
X125104590Y-148071761D01*
X125104592Y-148071762D01*
X125319433Y-148129328D01*
X125319435Y-148129328D01*
X125324748Y-148130752D01*
X125557280Y-148151096D01*
X125789812Y-148130752D01*
X125795125Y-148129328D01*
X125795127Y-148129328D01*
X126009968Y-148071762D01*
X126009970Y-148071761D01*
X126015278Y-148070339D01*
X126021272Y-148067544D01*
X126221841Y-147974017D01*
X126221846Y-147974014D01*
X126226828Y-147971691D01*
X126243856Y-147959768D01*
X126413523Y-147840966D01*
X126413526Y-147840964D01*
X126418034Y-147837807D01*
X126583087Y-147672754D01*
X126588970Y-147664353D01*
X126713814Y-147486057D01*
X126713815Y-147486055D01*
X126716971Y-147481548D01*
X126719294Y-147476566D01*
X126719297Y-147476561D01*
X126813296Y-147274980D01*
X126813297Y-147274978D01*
X126815619Y-147269998D01*
X126831303Y-147211466D01*
X126874608Y-147049847D01*
X126874608Y-147049845D01*
X126876032Y-147044532D01*
X126896376Y-146812000D01*
X126876032Y-146579468D01*
X126815619Y-146354002D01*
X126809012Y-146339833D01*
X126719297Y-146147439D01*
X126719294Y-146147434D01*
X126716971Y-146142452D01*
X126660066Y-146061183D01*
X126586246Y-145955757D01*
X126586244Y-145955754D01*
X126583087Y-145951246D01*
X126418034Y-145786193D01*
X126373508Y-145755016D01*
X126329181Y-145699560D01*
X126319780Y-145651804D01*
X126319780Y-144928656D01*
X126321213Y-144909706D01*
X126323404Y-144895307D01*
X126323404Y-144895301D01*
X126324504Y-144888072D01*
X126323779Y-144879151D01*
X126320195Y-144835097D01*
X126319780Y-144824882D01*
X126319780Y-144816755D01*
X126316469Y-144788356D01*
X126316040Y-144784016D01*
X126314764Y-144768321D01*
X126310089Y-144710854D01*
X126307833Y-144703892D01*
X126306637Y-144697904D01*
X126305229Y-144691947D01*
X126304381Y-144684673D01*
X126301883Y-144677791D01*
X126301882Y-144677787D01*
X126279335Y-144615673D01*
X126277925Y-144611569D01*
X126255293Y-144541705D01*
X126251493Y-144535442D01*
X126248955Y-144529900D01*
X126246213Y-144524424D01*
X126243714Y-144517539D01*
X126203465Y-144456148D01*
X126201150Y-144452480D01*
X126163053Y-144389699D01*
X126155613Y-144381275D01*
X126155642Y-144381249D01*
X126153042Y-144378318D01*
X126150238Y-144374964D01*
X126146226Y-144368845D01*
X126089693Y-144315291D01*
X126087252Y-144312914D01*
X123354405Y-141580067D01*
X123320379Y-141517755D01*
X123317500Y-141490972D01*
X123317500Y-140656376D01*
X123318933Y-140637426D01*
X123321124Y-140623027D01*
X123321124Y-140623021D01*
X123322224Y-140615792D01*
X123317915Y-140562817D01*
X123317500Y-140552602D01*
X123317500Y-140544475D01*
X123314189Y-140516076D01*
X123313760Y-140511736D01*
X123313349Y-140506675D01*
X123307809Y-140438574D01*
X123305553Y-140431612D01*
X123304357Y-140425624D01*
X123302949Y-140419667D01*
X123302101Y-140412393D01*
X123299603Y-140405511D01*
X123299602Y-140405507D01*
X123277055Y-140343393D01*
X123275645Y-140339289D01*
X123253013Y-140269425D01*
X123249213Y-140263162D01*
X123246675Y-140257620D01*
X123243933Y-140252144D01*
X123241434Y-140245259D01*
X123215656Y-140205941D01*
X123201185Y-140183868D01*
X123198870Y-140180200D01*
X123160773Y-140117419D01*
X123156030Y-140112048D01*
X123153333Y-140108995D01*
X123153362Y-140108969D01*
X123150762Y-140106038D01*
X123147958Y-140102684D01*
X123143946Y-140096565D01*
X123129005Y-140082411D01*
X123093308Y-140021042D01*
X123090737Y-139974492D01*
X123098110Y-139918494D01*
X123117529Y-139770992D01*
X123119264Y-139700000D01*
X123099750Y-139462644D01*
X123041731Y-139231663D01*
X122975945Y-139080364D01*
X122948827Y-139017996D01*
X122948825Y-139017993D01*
X122946767Y-139013259D01*
X122931599Y-138989812D01*
X122865699Y-138887947D01*
X122817406Y-138813298D01*
X122804038Y-138798606D01*
X122711550Y-138696964D01*
X122657124Y-138637150D01*
X122653073Y-138633951D01*
X122653069Y-138633947D01*
X122544293Y-138548042D01*
X122519347Y-138528341D01*
X122478285Y-138470425D01*
X122475053Y-138399502D01*
X122510678Y-138338091D01*
X122524271Y-138326882D01*
X122599814Y-138272998D01*
X122599821Y-138272992D01*
X122604020Y-138269997D01*
X122772716Y-138101889D01*
X122775730Y-138097695D01*
X122775739Y-138097684D01*
X122863915Y-137974974D01*
X122919909Y-137931326D01*
X122966237Y-137922500D01*
X125361972Y-137922500D01*
X125430093Y-137942502D01*
X125451067Y-137959405D01*
X125946595Y-138454933D01*
X125980621Y-138517245D01*
X125983500Y-138544028D01*
X125983500Y-141156624D01*
X125982067Y-141175574D01*
X125979876Y-141189973D01*
X125979876Y-141189979D01*
X125978776Y-141197208D01*
X125979369Y-141204500D01*
X125979369Y-141204503D01*
X125983085Y-141250183D01*
X125983500Y-141260398D01*
X125983500Y-141268525D01*
X125986811Y-141296924D01*
X125987238Y-141301244D01*
X125993191Y-141374426D01*
X125995447Y-141381388D01*
X125996643Y-141387376D01*
X125998051Y-141393333D01*
X125998899Y-141400607D01*
X126001397Y-141407489D01*
X126001398Y-141407493D01*
X126023945Y-141469607D01*
X126025355Y-141473711D01*
X126047987Y-141543575D01*
X126051787Y-141549838D01*
X126054325Y-141555380D01*
X126057067Y-141560856D01*
X126059566Y-141567741D01*
X126063581Y-141573865D01*
X126099815Y-141629132D01*
X126102130Y-141632800D01*
X126140227Y-141695581D01*
X126143941Y-141699786D01*
X126143943Y-141699789D01*
X126147667Y-141704005D01*
X126147638Y-141704031D01*
X126150238Y-141706962D01*
X126153042Y-141710316D01*
X126157054Y-141716435D01*
X126162366Y-141721467D01*
X126213586Y-141769988D01*
X126216028Y-141772366D01*
X127441532Y-142997870D01*
X127472270Y-143048028D01*
X127487923Y-143096203D01*
X127577409Y-143251197D01*
X127581827Y-143256104D01*
X127581828Y-143256105D01*
X127650172Y-143332009D01*
X127697164Y-143384199D01*
X127841955Y-143489396D01*
X127847983Y-143492080D01*
X127847985Y-143492081D01*
X127940749Y-143533382D01*
X127994845Y-143579362D01*
X128015500Y-143648489D01*
X128015500Y-148268624D01*
X128014067Y-148287574D01*
X128011876Y-148301973D01*
X128011876Y-148301979D01*
X128010776Y-148309208D01*
X128011369Y-148316500D01*
X128011369Y-148316503D01*
X128015085Y-148362183D01*
X128015500Y-148372398D01*
X128015500Y-148380525D01*
X128018811Y-148408924D01*
X128019238Y-148413244D01*
X128025191Y-148486426D01*
X128027447Y-148493388D01*
X128028643Y-148499376D01*
X128030051Y-148505333D01*
X128030899Y-148512607D01*
X128033397Y-148519489D01*
X128033398Y-148519493D01*
X128055945Y-148581607D01*
X128057355Y-148585711D01*
X128079987Y-148655575D01*
X128083787Y-148661838D01*
X128086325Y-148667380D01*
X128089067Y-148672856D01*
X128091566Y-148679741D01*
X128095581Y-148685865D01*
X128131815Y-148741132D01*
X128134130Y-148744800D01*
X128172227Y-148807581D01*
X128175941Y-148811786D01*
X128175943Y-148811789D01*
X128179667Y-148816005D01*
X128179638Y-148816031D01*
X128182238Y-148818962D01*
X128185042Y-148822316D01*
X128189054Y-148828435D01*
X128194366Y-148833467D01*
X128245586Y-148881988D01*
X128248028Y-148884366D01*
X131493190Y-152129528D01*
X131505577Y-152143941D01*
X131518546Y-152161564D01*
X131524130Y-152166308D01*
X131537275Y-152177476D01*
X131576239Y-152236825D01*
X131576931Y-152307818D01*
X131539132Y-152367916D01*
X131474841Y-152398037D01*
X131455695Y-152399500D01*
X107311245Y-152399500D01*
X107243124Y-152379498D01*
X107196631Y-152325842D01*
X107186527Y-152255568D01*
X107219395Y-152187247D01*
X107284590Y-152117822D01*
X107284594Y-152117817D01*
X107287001Y-152115254D01*
X107289106Y-152112440D01*
X107289112Y-152112433D01*
X107493106Y-151839747D01*
X107495215Y-151836928D01*
X107671107Y-151537128D01*
X107812484Y-151219589D01*
X107917585Y-150888271D01*
X107985099Y-150547301D01*
X108009676Y-150254617D01*
X108014001Y-150203115D01*
X108014002Y-150203104D01*
X108014184Y-150200931D01*
X108015398Y-150114000D01*
X108015081Y-150108321D01*
X107996191Y-149770462D01*
X107995995Y-149766953D01*
X107988108Y-149720322D01*
X107938615Y-149427700D01*
X107938614Y-149427695D01*
X107938028Y-149424231D01*
X107842220Y-149090107D01*
X107757420Y-148884366D01*
X107711102Y-148771990D01*
X107711098Y-148771982D01*
X107709764Y-148768745D01*
X107542311Y-148464150D01*
X107341950Y-148180120D01*
X107111176Y-147920193D01*
X107103631Y-147913399D01*
X107092754Y-147903606D01*
X106852867Y-147687611D01*
X106850017Y-147685570D01*
X106850010Y-147685565D01*
X106573096Y-147487314D01*
X106573093Y-147487312D01*
X106570242Y-147485271D01*
X106266824Y-147315696D01*
X105946394Y-147181000D01*
X105943025Y-147180009D01*
X105943021Y-147180007D01*
X105791839Y-147135512D01*
X105612947Y-147082861D01*
X105270639Y-147022503D01*
X105267130Y-147022282D01*
X105267128Y-147022282D01*
X104927253Y-147000899D01*
X104927247Y-147000899D01*
X104923735Y-147000678D01*
X104826057Y-147005455D01*
X104580068Y-147017486D01*
X104580060Y-147017487D01*
X104576561Y-147017658D01*
X104573093Y-147018220D01*
X104573090Y-147018220D01*
X104236918Y-147072667D01*
X104236915Y-147072668D01*
X104233443Y-147073230D01*
X104230056Y-147074176D01*
X104230050Y-147074177D01*
X104041535Y-147126812D01*
X103898659Y-147166704D01*
X103795317Y-147208457D01*
X103579644Y-147295594D01*
X103579640Y-147295596D01*
X103576380Y-147296913D01*
X103573293Y-147298582D01*
X103573289Y-147298584D01*
X103538462Y-147317415D01*
X103270623Y-147462235D01*
X102985201Y-147660609D01*
X102982559Y-147662922D01*
X102982555Y-147662925D01*
X102825495Y-147800421D01*
X102761065Y-147830242D01*
X102690740Y-147820495D01*
X102636849Y-147774275D01*
X102616500Y-147705617D01*
X102616500Y-146812000D01*
X114564835Y-146812000D01*
X114583465Y-147048711D01*
X114584619Y-147053518D01*
X114584620Y-147053524D01*
X114617924Y-147192245D01*
X114638895Y-147279594D01*
X114640788Y-147284165D01*
X114640789Y-147284167D01*
X114724935Y-147487314D01*
X114729760Y-147498963D01*
X114732346Y-147503183D01*
X114851241Y-147697202D01*
X114851245Y-147697208D01*
X114853824Y-147701416D01*
X114940836Y-147803294D01*
X115002263Y-147875215D01*
X115008031Y-147881969D01*
X115188584Y-148036176D01*
X115192792Y-148038755D01*
X115192798Y-148038759D01*
X115375334Y-148150617D01*
X115391037Y-148160240D01*
X115395607Y-148162133D01*
X115395611Y-148162135D01*
X115605833Y-148249211D01*
X115610406Y-148251105D01*
X115678567Y-148267469D01*
X115836476Y-148305380D01*
X115836482Y-148305381D01*
X115841289Y-148306535D01*
X116078000Y-148325165D01*
X116314711Y-148306535D01*
X116319518Y-148305381D01*
X116319524Y-148305380D01*
X116477433Y-148267469D01*
X116545594Y-148251105D01*
X116550167Y-148249211D01*
X116760389Y-148162135D01*
X116760393Y-148162133D01*
X116764963Y-148160240D01*
X116780666Y-148150617D01*
X116963202Y-148038759D01*
X116963208Y-148038755D01*
X116967416Y-148036176D01*
X117147969Y-147881969D01*
X117153738Y-147875215D01*
X117215164Y-147803294D01*
X117302176Y-147701416D01*
X117304755Y-147697208D01*
X117304759Y-147697202D01*
X117423654Y-147503183D01*
X117426240Y-147498963D01*
X117431066Y-147487314D01*
X117515211Y-147284167D01*
X117515212Y-147284165D01*
X117517105Y-147279594D01*
X117538076Y-147192245D01*
X117571380Y-147053524D01*
X117571381Y-147053518D01*
X117572535Y-147048711D01*
X117591165Y-146812000D01*
X119644835Y-146812000D01*
X119663465Y-147048711D01*
X119664619Y-147053518D01*
X119664620Y-147053524D01*
X119697924Y-147192245D01*
X119718895Y-147279594D01*
X119720788Y-147284165D01*
X119720789Y-147284167D01*
X119804935Y-147487314D01*
X119809760Y-147498963D01*
X119812346Y-147503183D01*
X119931241Y-147697202D01*
X119931245Y-147697208D01*
X119933824Y-147701416D01*
X120020836Y-147803294D01*
X120082263Y-147875215D01*
X120088031Y-147881969D01*
X120268584Y-148036176D01*
X120272792Y-148038755D01*
X120272798Y-148038759D01*
X120455334Y-148150617D01*
X120471037Y-148160240D01*
X120475607Y-148162133D01*
X120475611Y-148162135D01*
X120685833Y-148249211D01*
X120690406Y-148251105D01*
X120758567Y-148267469D01*
X120916476Y-148305380D01*
X120916482Y-148305381D01*
X120921289Y-148306535D01*
X121158000Y-148325165D01*
X121394711Y-148306535D01*
X121399518Y-148305381D01*
X121399524Y-148305380D01*
X121557433Y-148267469D01*
X121625594Y-148251105D01*
X121630167Y-148249211D01*
X121840389Y-148162135D01*
X121840393Y-148162133D01*
X121844963Y-148160240D01*
X121860666Y-148150617D01*
X122043202Y-148038759D01*
X122043208Y-148038755D01*
X122047416Y-148036176D01*
X122227969Y-147881969D01*
X122233738Y-147875215D01*
X122295164Y-147803294D01*
X122382176Y-147701416D01*
X122384755Y-147697208D01*
X122384759Y-147697202D01*
X122503654Y-147503183D01*
X122506240Y-147498963D01*
X122511066Y-147487314D01*
X122595211Y-147284167D01*
X122595212Y-147284165D01*
X122597105Y-147279594D01*
X122618076Y-147192245D01*
X122651380Y-147053524D01*
X122651381Y-147053518D01*
X122652535Y-147048711D01*
X122671165Y-146812000D01*
X122652535Y-146575289D01*
X122649193Y-146561365D01*
X122600725Y-146359484D01*
X122597105Y-146344406D01*
X122548180Y-146226289D01*
X122508135Y-146129611D01*
X122508133Y-146129607D01*
X122506240Y-146125037D01*
X122478234Y-146079335D01*
X122384759Y-145926798D01*
X122384755Y-145926792D01*
X122382176Y-145922584D01*
X122227969Y-145742031D01*
X122047416Y-145587824D01*
X122043208Y-145585245D01*
X122043202Y-145585241D01*
X121849183Y-145466346D01*
X121844963Y-145463760D01*
X121840393Y-145461867D01*
X121840389Y-145461865D01*
X121630167Y-145374789D01*
X121630165Y-145374788D01*
X121625594Y-145372895D01*
X121520008Y-145347546D01*
X121399524Y-145318620D01*
X121399518Y-145318619D01*
X121394711Y-145317465D01*
X121158000Y-145298835D01*
X120921289Y-145317465D01*
X120916482Y-145318619D01*
X120916476Y-145318620D01*
X120795992Y-145347546D01*
X120690406Y-145372895D01*
X120685835Y-145374788D01*
X120685833Y-145374789D01*
X120475611Y-145461865D01*
X120475607Y-145461867D01*
X120471037Y-145463760D01*
X120466817Y-145466346D01*
X120272798Y-145585241D01*
X120272792Y-145585245D01*
X120268584Y-145587824D01*
X120088031Y-145742031D01*
X119933824Y-145922584D01*
X119931245Y-145926792D01*
X119931241Y-145926798D01*
X119837766Y-146079335D01*
X119809760Y-146125037D01*
X119807867Y-146129607D01*
X119807865Y-146129611D01*
X119767820Y-146226289D01*
X119718895Y-146344406D01*
X119715275Y-146359484D01*
X119666808Y-146561365D01*
X119663465Y-146575289D01*
X119644835Y-146812000D01*
X117591165Y-146812000D01*
X117572535Y-146575289D01*
X117569193Y-146561365D01*
X117520725Y-146359484D01*
X117517105Y-146344406D01*
X117468180Y-146226289D01*
X117428135Y-146129611D01*
X117428133Y-146129607D01*
X117426240Y-146125037D01*
X117398234Y-146079335D01*
X117304759Y-145926798D01*
X117304755Y-145926792D01*
X117302176Y-145922584D01*
X117147969Y-145742031D01*
X116967416Y-145587824D01*
X116963208Y-145585245D01*
X116963202Y-145585241D01*
X116769183Y-145466346D01*
X116764963Y-145463760D01*
X116760393Y-145461867D01*
X116760389Y-145461865D01*
X116550167Y-145374789D01*
X116550165Y-145374788D01*
X116545594Y-145372895D01*
X116440008Y-145347546D01*
X116319524Y-145318620D01*
X116319518Y-145318619D01*
X116314711Y-145317465D01*
X116078000Y-145298835D01*
X115841289Y-145317465D01*
X115836482Y-145318619D01*
X115836476Y-145318620D01*
X115715992Y-145347546D01*
X115610406Y-145372895D01*
X115605835Y-145374788D01*
X115605833Y-145374789D01*
X115395611Y-145461865D01*
X115395607Y-145461867D01*
X115391037Y-145463760D01*
X115386817Y-145466346D01*
X115192798Y-145585241D01*
X115192792Y-145585245D01*
X115188584Y-145587824D01*
X115008031Y-145742031D01*
X114853824Y-145922584D01*
X114851245Y-145926792D01*
X114851241Y-145926798D01*
X114757766Y-146079335D01*
X114729760Y-146125037D01*
X114727867Y-146129607D01*
X114727865Y-146129611D01*
X114687820Y-146226289D01*
X114638895Y-146344406D01*
X114635275Y-146359484D01*
X114586808Y-146561365D01*
X114583465Y-146575289D01*
X114564835Y-146812000D01*
X102616500Y-146812000D01*
X102616500Y-143157133D01*
X105795733Y-143157133D01*
X105812682Y-143451090D01*
X105813507Y-143455295D01*
X105813508Y-143455303D01*
X105828827Y-143533382D01*
X105869369Y-143740026D01*
X105870756Y-143744076D01*
X105870757Y-143744081D01*
X105941044Y-143949371D01*
X105964745Y-144018595D01*
X106026453Y-144141288D01*
X106087509Y-144262685D01*
X106097044Y-144281644D01*
X106099470Y-144285173D01*
X106099473Y-144285179D01*
X106168416Y-144385491D01*
X106263819Y-144524303D01*
X106266706Y-144527476D01*
X106266707Y-144527477D01*
X106421784Y-144697904D01*
X106461984Y-144742083D01*
X106465279Y-144744838D01*
X106465280Y-144744839D01*
X106517344Y-144788371D01*
X106687872Y-144930954D01*
X106691513Y-144933238D01*
X106933662Y-145085139D01*
X106933666Y-145085141D01*
X106937302Y-145087422D01*
X107205660Y-145208590D01*
X107209779Y-145209810D01*
X107483866Y-145290999D01*
X107483871Y-145291000D01*
X107487979Y-145292217D01*
X107492213Y-145292865D01*
X107492218Y-145292866D01*
X107695119Y-145323914D01*
X107779035Y-145336755D01*
X107928932Y-145339110D01*
X108069153Y-145341313D01*
X108069159Y-145341313D01*
X108073444Y-145341380D01*
X108365755Y-145306006D01*
X108587714Y-145247776D01*
X108646419Y-145232375D01*
X108646420Y-145232375D01*
X108650562Y-145231288D01*
X108922593Y-145118609D01*
X108938538Y-145109292D01*
X109173117Y-144972215D01*
X109173118Y-144972215D01*
X109176815Y-144970054D01*
X109180175Y-144967420D01*
X109180183Y-144967414D01*
X109405152Y-144791015D01*
X109408524Y-144788371D01*
X109613432Y-144576923D01*
X109615965Y-144573475D01*
X109615969Y-144573470D01*
X109785209Y-144343077D01*
X109787747Y-144339622D01*
X109819226Y-144281644D01*
X109926193Y-144084635D01*
X109926194Y-144084633D01*
X109928243Y-144080859D01*
X110032322Y-143805423D01*
X110085820Y-143571838D01*
X110097100Y-143522589D01*
X110097100Y-143522587D01*
X110098057Y-143518410D01*
X110123111Y-143237685D01*
X110124011Y-143227599D01*
X110124011Y-143227592D01*
X110124231Y-143225131D01*
X110124706Y-143179800D01*
X110123479Y-143161797D01*
X110104971Y-142890314D01*
X110104970Y-142890308D01*
X110104679Y-142886037D01*
X110044970Y-142597711D01*
X109946682Y-142320155D01*
X109856158Y-142144768D01*
X109813600Y-142062314D01*
X109813600Y-142062313D01*
X109811635Y-142058507D01*
X109800381Y-142042493D01*
X109722645Y-141931887D01*
X109642328Y-141817607D01*
X109540102Y-141707599D01*
X109444815Y-141605057D01*
X109444812Y-141605054D01*
X109441894Y-141601914D01*
X109438579Y-141599200D01*
X109438575Y-141599197D01*
X109217359Y-141418134D01*
X109214041Y-141415418D01*
X108996411Y-141282055D01*
X108966648Y-141263816D01*
X108966647Y-141263816D01*
X108962986Y-141261572D01*
X108937042Y-141250183D01*
X108723909Y-141156624D01*
X108693374Y-141143220D01*
X108410194Y-141062555D01*
X108118687Y-141021067D01*
X107963536Y-141020254D01*
X107828533Y-141019547D01*
X107828526Y-141019547D01*
X107824247Y-141019525D01*
X107820003Y-141020084D01*
X107819999Y-141020084D01*
X107691230Y-141037037D01*
X107532322Y-141057958D01*
X107528182Y-141059091D01*
X107528180Y-141059091D01*
X107415839Y-141089824D01*
X107248313Y-141135654D01*
X106977477Y-141251175D01*
X106881604Y-141308554D01*
X106728506Y-141400181D01*
X106728502Y-141400184D01*
X106724824Y-141402385D01*
X106495031Y-141586484D01*
X106492087Y-141589586D01*
X106492083Y-141589590D01*
X106454070Y-141629648D01*
X106292349Y-141800066D01*
X106120528Y-142039180D01*
X106118522Y-142042969D01*
X106011657Y-142244803D01*
X105982749Y-142299400D01*
X105981277Y-142303423D01*
X105981275Y-142303427D01*
X105929852Y-142443947D01*
X105881560Y-142575911D01*
X105818835Y-142863597D01*
X105795733Y-143157133D01*
X102616500Y-143157133D01*
X102616500Y-139523170D01*
X109929024Y-139523170D01*
X109938318Y-139535184D01*
X109997781Y-139576820D01*
X110007276Y-139582303D01*
X110210792Y-139677203D01*
X110221084Y-139680949D01*
X110437987Y-139739068D01*
X110448782Y-139740971D01*
X110672485Y-139760543D01*
X110683435Y-139760543D01*
X110907138Y-139740971D01*
X110917933Y-139739068D01*
X111134836Y-139680949D01*
X111145128Y-139677203D01*
X111348644Y-139582303D01*
X111358139Y-139576820D01*
X111418437Y-139534599D01*
X111426812Y-139524122D01*
X111419745Y-139510676D01*
X110690771Y-138781701D01*
X110676828Y-138774088D01*
X110674994Y-138774219D01*
X110668380Y-138778470D01*
X109935451Y-139511400D01*
X109929024Y-139523170D01*
X102616500Y-139523170D01*
X102616500Y-138415155D01*
X109327097Y-138415155D01*
X109346669Y-138638858D01*
X109348572Y-138649653D01*
X109406691Y-138866556D01*
X109410437Y-138876848D01*
X109505337Y-139080364D01*
X109510820Y-139089859D01*
X109553041Y-139150157D01*
X109563518Y-139158532D01*
X109576964Y-139151465D01*
X110305939Y-138422491D01*
X110313552Y-138408548D01*
X110313421Y-138406714D01*
X110309170Y-138400100D01*
X109576240Y-137667171D01*
X109564470Y-137660744D01*
X109552456Y-137670038D01*
X109510820Y-137729501D01*
X109505337Y-137738996D01*
X109410437Y-137942512D01*
X109406691Y-137952804D01*
X109348572Y-138169707D01*
X109346669Y-138180502D01*
X109327097Y-138404205D01*
X109327097Y-138415155D01*
X102616500Y-138415155D01*
X102616500Y-135910320D01*
X109326116Y-135910320D01*
X109346654Y-136145065D01*
X109348078Y-136150379D01*
X109348078Y-136150380D01*
X109394756Y-136324585D01*
X109407642Y-136372678D01*
X109409964Y-136377658D01*
X109409965Y-136377660D01*
X109484237Y-136536935D01*
X109507229Y-136586242D01*
X109642387Y-136779269D01*
X109809011Y-136945893D01*
X109967385Y-137056787D01*
X109967821Y-137057092D01*
X110012149Y-137112549D01*
X110019458Y-137183168D01*
X109987428Y-137246529D01*
X109967821Y-137263518D01*
X109937483Y-137284761D01*
X109929108Y-137295238D01*
X109936175Y-137308684D01*
X110665149Y-138037659D01*
X110679092Y-138045272D01*
X110680926Y-138045141D01*
X110687540Y-138040890D01*
X111420469Y-137307960D01*
X111426896Y-137296190D01*
X111417602Y-137284176D01*
X111388099Y-137263518D01*
X111343771Y-137208061D01*
X111336462Y-137137442D01*
X111368493Y-137074081D01*
X111388099Y-137057092D01*
X111388535Y-137056787D01*
X111546909Y-136945893D01*
X111579465Y-136913337D01*
X111641777Y-136879311D01*
X111712592Y-136884376D01*
X111757655Y-136913337D01*
X111790211Y-136945893D01*
X111794723Y-136949052D01*
X111948585Y-137056787D01*
X111992914Y-137112244D01*
X112000223Y-137182863D01*
X111968193Y-137246224D01*
X111948585Y-137263213D01*
X111918647Y-137284176D01*
X111790211Y-137374107D01*
X111623587Y-137540731D01*
X111488429Y-137733758D01*
X111486108Y-137738736D01*
X111486106Y-137738739D01*
X111445031Y-137826824D01*
X111388842Y-137947322D01*
X111387421Y-137952627D01*
X111387418Y-137952634D01*
X111357067Y-138065910D01*
X111324455Y-138122396D01*
X111049981Y-138396869D01*
X111042368Y-138410812D01*
X111042499Y-138412646D01*
X111046750Y-138419259D01*
X111324455Y-138696964D01*
X111357067Y-138753450D01*
X111387418Y-138866726D01*
X111387419Y-138866728D01*
X111388842Y-138872038D01*
X111391164Y-138877018D01*
X111391165Y-138877020D01*
X111479894Y-139067298D01*
X111488429Y-139085602D01*
X111623587Y-139278629D01*
X111790211Y-139445253D01*
X111983238Y-139580411D01*
X111988216Y-139582732D01*
X111988219Y-139582734D01*
X112190808Y-139677203D01*
X112196802Y-139679998D01*
X112202110Y-139681420D01*
X112202112Y-139681421D01*
X112419100Y-139739562D01*
X112424415Y-139740986D01*
X112659160Y-139761524D01*
X112893905Y-139740986D01*
X112899220Y-139739562D01*
X113116208Y-139681421D01*
X113116210Y-139681420D01*
X113121518Y-139679998D01*
X113127512Y-139677203D01*
X113165776Y-139659360D01*
X114738904Y-139659360D01*
X114759248Y-139891892D01*
X114760672Y-139897205D01*
X114760672Y-139897207D01*
X114814090Y-140096565D01*
X114819661Y-140117358D01*
X114821983Y-140122338D01*
X114821984Y-140122340D01*
X114915983Y-140323921D01*
X114915985Y-140323924D01*
X114918309Y-140328908D01*
X114921465Y-140333415D01*
X114921466Y-140333417D01*
X115046327Y-140511736D01*
X115052193Y-140520114D01*
X115217246Y-140685167D01*
X115221754Y-140688324D01*
X115221757Y-140688326D01*
X115402392Y-140814808D01*
X115408452Y-140819051D01*
X115413434Y-140821374D01*
X115413439Y-140821377D01*
X115599550Y-140908162D01*
X115620002Y-140917699D01*
X115625310Y-140919121D01*
X115625312Y-140919122D01*
X115840153Y-140976688D01*
X115840155Y-140976688D01*
X115845468Y-140978112D01*
X116078000Y-140998456D01*
X116310532Y-140978112D01*
X116315845Y-140976688D01*
X116315847Y-140976688D01*
X116530688Y-140919122D01*
X116530690Y-140919121D01*
X116535998Y-140917699D01*
X116556450Y-140908162D01*
X116742561Y-140821377D01*
X116742566Y-140821374D01*
X116747548Y-140819051D01*
X116753608Y-140814808D01*
X116934243Y-140688326D01*
X116934246Y-140688324D01*
X116938754Y-140685167D01*
X117103807Y-140520114D01*
X117109674Y-140511736D01*
X117234534Y-140333417D01*
X117234535Y-140333415D01*
X117237691Y-140328908D01*
X117240015Y-140323924D01*
X117240017Y-140323921D01*
X117334016Y-140122340D01*
X117334017Y-140122338D01*
X117336339Y-140117358D01*
X117341911Y-140096565D01*
X117395328Y-139897207D01*
X117395328Y-139897205D01*
X117396752Y-139891892D01*
X117417096Y-139659360D01*
X117396752Y-139426828D01*
X117392131Y-139409581D01*
X117337762Y-139206672D01*
X117337761Y-139206670D01*
X117336339Y-139201362D01*
X117325672Y-139178486D01*
X117240017Y-138994799D01*
X117240014Y-138994794D01*
X117237691Y-138989812D01*
X117220305Y-138964982D01*
X117106966Y-138803117D01*
X117106964Y-138803114D01*
X117103807Y-138798606D01*
X116938754Y-138633553D01*
X116934246Y-138630396D01*
X116934243Y-138630394D01*
X116752057Y-138502826D01*
X116752055Y-138502825D01*
X116747548Y-138499669D01*
X116742566Y-138497346D01*
X116742561Y-138497343D01*
X116540980Y-138403344D01*
X116540978Y-138403343D01*
X116535998Y-138401021D01*
X116530690Y-138399599D01*
X116530688Y-138399598D01*
X116315847Y-138342032D01*
X116315845Y-138342032D01*
X116310532Y-138340608D01*
X116078000Y-138320264D01*
X115845468Y-138340608D01*
X115840155Y-138342032D01*
X115840153Y-138342032D01*
X115625312Y-138399598D01*
X115625310Y-138399599D01*
X115620002Y-138401021D01*
X115615022Y-138403343D01*
X115615020Y-138403344D01*
X115413439Y-138497343D01*
X115413434Y-138497346D01*
X115408452Y-138499669D01*
X115403945Y-138502825D01*
X115403943Y-138502826D01*
X115221757Y-138630394D01*
X115221754Y-138630396D01*
X115217246Y-138633553D01*
X115052193Y-138798606D01*
X115049036Y-138803114D01*
X115049034Y-138803117D01*
X114935695Y-138964982D01*
X114918309Y-138989812D01*
X114915986Y-138994794D01*
X114915983Y-138994799D01*
X114830328Y-139178486D01*
X114819661Y-139201362D01*
X114818239Y-139206670D01*
X114818238Y-139206672D01*
X114763869Y-139409581D01*
X114759248Y-139426828D01*
X114738904Y-139659360D01*
X113165776Y-139659360D01*
X113330101Y-139582734D01*
X113330104Y-139582732D01*
X113335082Y-139580411D01*
X113528109Y-139445253D01*
X113694733Y-139278629D01*
X113829891Y-139085602D01*
X113838427Y-139067298D01*
X113927155Y-138877020D01*
X113927156Y-138877018D01*
X113929478Y-138872038D01*
X113930902Y-138866726D01*
X113989042Y-138649740D01*
X113989042Y-138649739D01*
X113990466Y-138644425D01*
X114011004Y-138409680D01*
X113990466Y-138174935D01*
X113977846Y-138127837D01*
X113930901Y-137952632D01*
X113930900Y-137952630D01*
X113929478Y-137947322D01*
X113873289Y-137826824D01*
X113832214Y-137738739D01*
X113832212Y-137738736D01*
X113829891Y-137733758D01*
X113694733Y-137540731D01*
X113528109Y-137374107D01*
X113399673Y-137284176D01*
X113369735Y-137263213D01*
X113325406Y-137207756D01*
X113318097Y-137137137D01*
X113350127Y-137073776D01*
X113369735Y-137056787D01*
X113523597Y-136949052D01*
X113528109Y-136945893D01*
X113694733Y-136779269D01*
X113829891Y-136586242D01*
X113852884Y-136536935D01*
X113927155Y-136377660D01*
X113927156Y-136377658D01*
X113929478Y-136372678D01*
X113942365Y-136324585D01*
X113989042Y-136150380D01*
X113989042Y-136150379D01*
X113990466Y-136145065D01*
X114011004Y-135910320D01*
X113998291Y-135765011D01*
X115338183Y-135765011D01*
X115347480Y-135777027D01*
X115404198Y-135816741D01*
X115413684Y-135822219D01*
X115615192Y-135916184D01*
X115625484Y-135919930D01*
X115840241Y-135977474D01*
X115851036Y-135979377D01*
X116072525Y-135998755D01*
X116083475Y-135998755D01*
X116304964Y-135979377D01*
X116315759Y-135977474D01*
X116530516Y-135919930D01*
X116540808Y-135916184D01*
X116742316Y-135822219D01*
X116751802Y-135816741D01*
X116809358Y-135776441D01*
X116817733Y-135765963D01*
X116810665Y-135752515D01*
X116090812Y-135032662D01*
X116076868Y-135025048D01*
X116075035Y-135025179D01*
X116068420Y-135029430D01*
X115344613Y-135753237D01*
X115338183Y-135765011D01*
X113998291Y-135765011D01*
X113990466Y-135675575D01*
X113974955Y-135617685D01*
X113930901Y-135453272D01*
X113930900Y-135453270D01*
X113929478Y-135447962D01*
X113903934Y-135393183D01*
X113832214Y-135239379D01*
X113832212Y-135239376D01*
X113829891Y-135234398D01*
X113694733Y-135041371D01*
X113528109Y-134874747D01*
X113335082Y-134739589D01*
X113330104Y-134737268D01*
X113330101Y-134737266D01*
X113177518Y-134666115D01*
X114739885Y-134666115D01*
X114759263Y-134887604D01*
X114761166Y-134898399D01*
X114818710Y-135113156D01*
X114822456Y-135123448D01*
X114916421Y-135324956D01*
X114921899Y-135334442D01*
X114962199Y-135391998D01*
X114972677Y-135400373D01*
X114986125Y-135393305D01*
X115705978Y-134673452D01*
X115712356Y-134661772D01*
X116442408Y-134661772D01*
X116442539Y-134663605D01*
X116446790Y-134670220D01*
X117170597Y-135394027D01*
X117182371Y-135400457D01*
X117194387Y-135391160D01*
X117234101Y-135334442D01*
X117239579Y-135324956D01*
X117333544Y-135123448D01*
X117337290Y-135113156D01*
X117394834Y-134898399D01*
X117396737Y-134887604D01*
X117416115Y-134666115D01*
X117416115Y-134655165D01*
X117396737Y-134433676D01*
X117394834Y-134422881D01*
X117337290Y-134208124D01*
X117333544Y-134197832D01*
X117239579Y-133996324D01*
X117234101Y-133986838D01*
X117193801Y-133929282D01*
X117183323Y-133920907D01*
X117169875Y-133927975D01*
X116450022Y-134647828D01*
X116442408Y-134661772D01*
X115712356Y-134661772D01*
X115713592Y-134659508D01*
X115713461Y-134657675D01*
X115709210Y-134651060D01*
X114985403Y-133927253D01*
X114973629Y-133920823D01*
X114961613Y-133930120D01*
X114921899Y-133986838D01*
X114916421Y-133996324D01*
X114822456Y-134197832D01*
X114818710Y-134208124D01*
X114761166Y-134422881D01*
X114759263Y-134433676D01*
X114739885Y-134655165D01*
X114739885Y-134666115D01*
X113177518Y-134666115D01*
X113126500Y-134642325D01*
X113126498Y-134642324D01*
X113121518Y-134640002D01*
X113116210Y-134638580D01*
X113116208Y-134638579D01*
X112899220Y-134580438D01*
X112899219Y-134580438D01*
X112893905Y-134579014D01*
X112659160Y-134558476D01*
X112424415Y-134579014D01*
X112419101Y-134580438D01*
X112419100Y-134580438D01*
X112202112Y-134638579D01*
X112202110Y-134638580D01*
X112196802Y-134640002D01*
X112191822Y-134642324D01*
X112191820Y-134642325D01*
X111988219Y-134737266D01*
X111988216Y-134737268D01*
X111983238Y-134739589D01*
X111790211Y-134874747D01*
X111757655Y-134907303D01*
X111695343Y-134941329D01*
X111624528Y-134936264D01*
X111579465Y-134907303D01*
X111546909Y-134874747D01*
X111353882Y-134739589D01*
X111348904Y-134737268D01*
X111348901Y-134737266D01*
X111145300Y-134642325D01*
X111145298Y-134642324D01*
X111140318Y-134640002D01*
X111135010Y-134638580D01*
X111135008Y-134638579D01*
X110918020Y-134580438D01*
X110918019Y-134580438D01*
X110912705Y-134579014D01*
X110677960Y-134558476D01*
X110443215Y-134579014D01*
X110437901Y-134580438D01*
X110437900Y-134580438D01*
X110220912Y-134638579D01*
X110220910Y-134638580D01*
X110215602Y-134640002D01*
X110210622Y-134642324D01*
X110210620Y-134642325D01*
X110007019Y-134737266D01*
X110007016Y-134737268D01*
X110002038Y-134739589D01*
X109809011Y-134874747D01*
X109642387Y-135041371D01*
X109507229Y-135234398D01*
X109504908Y-135239376D01*
X109504906Y-135239379D01*
X109433186Y-135393183D01*
X109407642Y-135447962D01*
X109406220Y-135453270D01*
X109406219Y-135453272D01*
X109362165Y-135617685D01*
X109346654Y-135675575D01*
X109326116Y-135910320D01*
X102616500Y-135910320D01*
X102616500Y-133555317D01*
X115338267Y-133555317D01*
X115345335Y-133568765D01*
X116065188Y-134288618D01*
X116079132Y-134296232D01*
X116080965Y-134296101D01*
X116087580Y-134291850D01*
X116811387Y-133568043D01*
X116817817Y-133556269D01*
X116808520Y-133544253D01*
X116751802Y-133504539D01*
X116742316Y-133499061D01*
X116540808Y-133405096D01*
X116530516Y-133401350D01*
X116315759Y-133343806D01*
X116304964Y-133341903D01*
X116083475Y-133322525D01*
X116072525Y-133322525D01*
X115851036Y-133341903D01*
X115840241Y-133343806D01*
X115625484Y-133401350D01*
X115615192Y-133405096D01*
X115413684Y-133499061D01*
X115404198Y-133504539D01*
X115346642Y-133544839D01*
X115338267Y-133555317D01*
X102616500Y-133555317D01*
X102616500Y-131117533D01*
X105795733Y-131117533D01*
X105812682Y-131411490D01*
X105813507Y-131415695D01*
X105813508Y-131415703D01*
X105840561Y-131553592D01*
X105869369Y-131700426D01*
X105870756Y-131704476D01*
X105870757Y-131704481D01*
X105963356Y-131974939D01*
X105964745Y-131978995D01*
X106097044Y-132242044D01*
X106099470Y-132245573D01*
X106099473Y-132245579D01*
X106178290Y-132360258D01*
X106263819Y-132484703D01*
X106266706Y-132487876D01*
X106266707Y-132487877D01*
X106425398Y-132662276D01*
X106461984Y-132702483D01*
X106465279Y-132705238D01*
X106465280Y-132705239D01*
X106467326Y-132706950D01*
X106687872Y-132891354D01*
X106691513Y-132893638D01*
X106933662Y-133045539D01*
X106933666Y-133045541D01*
X106937302Y-133047822D01*
X107205660Y-133168990D01*
X107275346Y-133189632D01*
X107483866Y-133251399D01*
X107483871Y-133251400D01*
X107487979Y-133252617D01*
X107492213Y-133253265D01*
X107492218Y-133253266D01*
X107749556Y-133292644D01*
X107779035Y-133297155D01*
X107928932Y-133299510D01*
X108069153Y-133301713D01*
X108069159Y-133301713D01*
X108073444Y-133301780D01*
X108365755Y-133266406D01*
X108591316Y-133207231D01*
X108646419Y-133192775D01*
X108646420Y-133192775D01*
X108650562Y-133191688D01*
X108922593Y-133079009D01*
X108933387Y-133072702D01*
X109173117Y-132932615D01*
X109173118Y-132932615D01*
X109176815Y-132930454D01*
X109180175Y-132927820D01*
X109180183Y-132927814D01*
X109405152Y-132751415D01*
X109408524Y-132748771D01*
X109613432Y-132537323D01*
X109615965Y-132533875D01*
X109615969Y-132533870D01*
X109785209Y-132303477D01*
X109787747Y-132300022D01*
X109796475Y-132283947D01*
X109926193Y-132045035D01*
X109926194Y-132045033D01*
X109928243Y-132041259D01*
X110032322Y-131765823D01*
X110098057Y-131478810D01*
X110124231Y-131185531D01*
X110124706Y-131140200D01*
X110123462Y-131121957D01*
X110104971Y-130850714D01*
X110104970Y-130850708D01*
X110104679Y-130846437D01*
X110095150Y-130800420D01*
X110045839Y-130562308D01*
X110044970Y-130558111D01*
X109946682Y-130280555D01*
X109811635Y-130018907D01*
X109790008Y-129988134D01*
X109687831Y-129842752D01*
X109642328Y-129778007D01*
X109504163Y-129629323D01*
X109444815Y-129565457D01*
X109444812Y-129565454D01*
X109441894Y-129562314D01*
X109438579Y-129559600D01*
X109438575Y-129559597D01*
X109340912Y-129479661D01*
X115528222Y-129479661D01*
X115532201Y-129485265D01*
X115729449Y-129600526D01*
X115738736Y-129604976D01*
X115955391Y-129687708D01*
X115965289Y-129690584D01*
X116192548Y-129736820D01*
X116202776Y-129738039D01*
X116434534Y-129746538D01*
X116444820Y-129746071D01*
X116674857Y-129716603D01*
X116684935Y-129714461D01*
X116907066Y-129647818D01*
X116916664Y-129644056D01*
X117124929Y-129542029D01*
X117133774Y-129536756D01*
X117204483Y-129486319D01*
X117212883Y-129475620D01*
X117205896Y-129462466D01*
X117026764Y-129283334D01*
X119897660Y-129283334D01*
X119904415Y-129345516D01*
X119955545Y-129481905D01*
X120042899Y-129598461D01*
X120159455Y-129685815D01*
X120295844Y-129736945D01*
X120358026Y-129743700D01*
X122384694Y-129743700D01*
X122446876Y-129736945D01*
X122583265Y-129685815D01*
X122699821Y-129598461D01*
X122787175Y-129481905D01*
X122838305Y-129345516D01*
X122845060Y-129283334D01*
X122845060Y-127256666D01*
X122838305Y-127194484D01*
X122787175Y-127058095D01*
X122699821Y-126941539D01*
X122583265Y-126854185D01*
X122446876Y-126803055D01*
X122384694Y-126796300D01*
X120358026Y-126796300D01*
X120295844Y-126803055D01*
X120159455Y-126854185D01*
X120042899Y-126941539D01*
X119955545Y-127058095D01*
X119904415Y-127194484D01*
X119897660Y-127256666D01*
X119897660Y-129283334D01*
X117026764Y-129283334D01*
X116385452Y-128642022D01*
X116371508Y-128634408D01*
X116369675Y-128634539D01*
X116363060Y-128638790D01*
X115535480Y-129466370D01*
X115528222Y-129479661D01*
X109340912Y-129479661D01*
X109249120Y-129404530D01*
X109214041Y-129375818D01*
X108962986Y-129221972D01*
X108908507Y-129198057D01*
X108828180Y-129162796D01*
X108693374Y-129103620D01*
X108410194Y-129022955D01*
X108118687Y-128981467D01*
X107963536Y-128980654D01*
X107828533Y-128979947D01*
X107828526Y-128979947D01*
X107824247Y-128979925D01*
X107820003Y-128980484D01*
X107819999Y-128980484D01*
X107691230Y-128997437D01*
X107532322Y-129018358D01*
X107528182Y-129019491D01*
X107528180Y-129019491D01*
X107366857Y-129063624D01*
X107248313Y-129096054D01*
X106977477Y-129211575D01*
X106863286Y-129279917D01*
X106728506Y-129360581D01*
X106728502Y-129360584D01*
X106724824Y-129362785D01*
X106495031Y-129546884D01*
X106492087Y-129549986D01*
X106492083Y-129549990D01*
X106435196Y-129609937D01*
X106292349Y-129760466D01*
X106120528Y-129999580D01*
X105982749Y-130259800D01*
X105981277Y-130263823D01*
X105981275Y-130263827D01*
X105883035Y-130532280D01*
X105881560Y-130536311D01*
X105818835Y-130823997D01*
X105795733Y-131117533D01*
X102616500Y-131117533D01*
X102616500Y-128239039D01*
X114895129Y-128239039D01*
X114908479Y-128470563D01*
X114909915Y-128480784D01*
X114960899Y-128707015D01*
X114963978Y-128716843D01*
X115051229Y-128931714D01*
X115055882Y-128940925D01*
X115155322Y-129103195D01*
X115165780Y-129112657D01*
X115174556Y-129108874D01*
X116000618Y-128282812D01*
X116006996Y-128271132D01*
X116737048Y-128271132D01*
X116737179Y-128272965D01*
X116741430Y-128279580D01*
X117565662Y-129103812D01*
X117577673Y-129110371D01*
X117589412Y-129101403D01*
X117636727Y-129035558D01*
X117642041Y-129026713D01*
X117744787Y-128818821D01*
X117748586Y-128809226D01*
X117816000Y-128587343D01*
X117818179Y-128577262D01*
X117848687Y-128345534D01*
X117849206Y-128338860D01*
X117850807Y-128273364D01*
X117850613Y-128266647D01*
X117831463Y-128033715D01*
X117829780Y-128023553D01*
X117773282Y-127798622D01*
X117769964Y-127788874D01*
X117677487Y-127576191D01*
X117672620Y-127567114D01*
X117589016Y-127437884D01*
X117578330Y-127428682D01*
X117568765Y-127433085D01*
X116744662Y-128257188D01*
X116737048Y-128271132D01*
X116006996Y-128271132D01*
X116008232Y-128268868D01*
X116008101Y-128267035D01*
X116003850Y-128260420D01*
X115179585Y-127436155D01*
X115168049Y-127429855D01*
X115155766Y-127439479D01*
X115090229Y-127535552D01*
X115085131Y-127544526D01*
X114987493Y-127754868D01*
X114983930Y-127764555D01*
X114921957Y-127988020D01*
X114920026Y-127998141D01*
X114895380Y-128228751D01*
X114895129Y-128239039D01*
X102616500Y-128239039D01*
X102616500Y-126614639D01*
X102636502Y-126546518D01*
X102690158Y-126500025D01*
X102760432Y-126489921D01*
X102828110Y-126522189D01*
X102917445Y-126604914D01*
X102920267Y-126606995D01*
X102920270Y-126606997D01*
X103014740Y-126676646D01*
X103197218Y-126811180D01*
X103200255Y-126812934D01*
X103200259Y-126812936D01*
X103316909Y-126880284D01*
X103498239Y-126984975D01*
X103583492Y-127022221D01*
X103813535Y-127122725D01*
X103813538Y-127122726D01*
X103816756Y-127124132D01*
X103820113Y-127125171D01*
X103820118Y-127125173D01*
X104145441Y-127225877D01*
X104148801Y-127226917D01*
X104152257Y-127227576D01*
X104152256Y-127227576D01*
X104486782Y-127291390D01*
X104486787Y-127291391D01*
X104490233Y-127292048D01*
X104680742Y-127306707D01*
X104833301Y-127318446D01*
X104833302Y-127318446D01*
X104836798Y-127318715D01*
X105056260Y-127311051D01*
X105180660Y-127306707D01*
X105180664Y-127306707D01*
X105184175Y-127306584D01*
X105246621Y-127297363D01*
X105524544Y-127256324D01*
X105524550Y-127256323D01*
X105528036Y-127255808D01*
X105531440Y-127254909D01*
X105531443Y-127254908D01*
X105860685Y-127167918D01*
X105860694Y-127167915D01*
X105864093Y-127167017D01*
X106012335Y-127109518D01*
X106129323Y-127064142D01*
X115531578Y-127064142D01*
X115538323Y-127076473D01*
X116359828Y-127897978D01*
X116373772Y-127905592D01*
X116375605Y-127905461D01*
X116382220Y-127901210D01*
X117208053Y-127075377D01*
X117215074Y-127062521D01*
X117207301Y-127051853D01*
X117194745Y-127041936D01*
X117186172Y-127036240D01*
X116983132Y-126924156D01*
X116973735Y-126919933D01*
X116755127Y-126842520D01*
X116745156Y-126839886D01*
X116516846Y-126799219D01*
X116506592Y-126798249D01*
X116274693Y-126795415D01*
X116264408Y-126796135D01*
X116035171Y-126831213D01*
X116025144Y-126833602D01*
X115804713Y-126905650D01*
X115795204Y-126909647D01*
X115589505Y-127016727D01*
X115580780Y-127022221D01*
X115540031Y-127052817D01*
X115531578Y-127064142D01*
X106129323Y-127064142D01*
X106184878Y-127042594D01*
X106184884Y-127042591D01*
X106188159Y-127041321D01*
X106191266Y-127039697D01*
X106191272Y-127039694D01*
X106493085Y-126881909D01*
X106493087Y-126881908D01*
X106496193Y-126880284D01*
X106499105Y-126878320D01*
X106781443Y-126687882D01*
X106781453Y-126687875D01*
X106784358Y-126685915D01*
X106867092Y-126615503D01*
X107046387Y-126462910D01*
X107046388Y-126462909D01*
X107049060Y-126460635D01*
X107187500Y-126313212D01*
X107284590Y-126209822D01*
X107284594Y-126209817D01*
X107287001Y-126207254D01*
X107289106Y-126204440D01*
X107289112Y-126204433D01*
X107493106Y-125931747D01*
X107495215Y-125928928D01*
X107671107Y-125629128D01*
X107812484Y-125311589D01*
X107917585Y-124980271D01*
X107985099Y-124639301D01*
X108014184Y-124292931D01*
X108015398Y-124206000D01*
X107995995Y-123858953D01*
X107938028Y-123516231D01*
X107842220Y-123182107D01*
X107795778Y-123069429D01*
X107711102Y-122863990D01*
X107711098Y-122863982D01*
X107709764Y-122860745D01*
X107542311Y-122556150D01*
X107341950Y-122272120D01*
X107215908Y-122130155D01*
X107185639Y-122065934D01*
X107194895Y-121995543D01*
X107240737Y-121941331D01*
X107310131Y-121920500D01*
X146435747Y-121920500D01*
X146503868Y-121940502D01*
G37*
%TD.AperFunction*%
%TD*%
M02*
