M48
; DRILL file {KiCad (6.0.7)} date Thu Sep 29 14:27:10 2022
; FORMAT={-:-/ absolute / inch / decimal}
; #@! TF.CreationDate,2022-09-29T14:27:10-05:00
; #@! TF.GenerationSoftware,Kicad,Pcbnew,(6.0.7)
; #@! TF.FileFunction,Plated,1,2,PTH
FMAT,2
INCH
; #@! TA.AperFunction,Plated,PTH,ViaDrill
T1C0.0130
; #@! TA.AperFunction,Plated,PTH,ComponentDrill
T2C0.0197
; #@! TA.AperFunction,Plated,PTH,ComponentDrill
T3C0.0275
; #@! TA.AperFunction,Plated,PTH,ComponentDrill
T4C0.0315
; #@! TA.AperFunction,Plated,PTH,ComponentDrill
T5C0.0320
; #@! TA.AperFunction,Plated,PTH,ComponentDrill
T6C0.0354
; #@! TA.AperFunction,Plated,PTH,ComponentDrill
T7C0.0360
; #@! TA.AperFunction,Plated,PTH,ComponentDrill
T8C0.0400
; #@! TA.AperFunction,Plated,PTH,ComponentDrill
T9C0.0900
; #@! TA.AperFunction,Plated,PTH,ComponentDrill
T10C0.1300
%
G90
G05
T1
X5.05Y-5.62
X5.07Y-5.37
X5.14Y-5.61
X5.15Y-5.37
X5.17Y-5.18
X5.18Y-5.32
X5.23Y-5.37
X5.26Y-5.32
X5.3Y-5.65
T2
X4.05Y-4.89
X4.05Y-5.91
X4.07Y-4.83
X4.07Y-4.95
X4.07Y-5.85
X4.07Y-5.97
X4.13Y-4.81
X4.13Y-4.97
X4.13Y-5.83
X4.13Y-5.99
X4.19Y-4.83
X4.19Y-4.95
X4.19Y-5.85
X4.19Y-5.97
X4.21Y-4.89
X4.21Y-5.91
X5.78Y-4.89
X5.78Y-5.91
X5.8Y-4.83
X5.8Y-4.95
X5.8Y-5.85
X5.8Y-5.97
X5.86Y-4.81
X5.86Y-4.97
X5.86Y-5.83
X5.86Y-5.99
X5.92Y-4.83
X5.92Y-4.95
X5.92Y-5.85
X5.92Y-5.97
X5.94Y-4.89
X5.94Y-5.91
T3
X4.57Y-5.3016
X4.57Y-5.4984
X4.9432Y-5.06
X4.9432Y-5.78
X5.14Y-5.06
X5.14Y-5.78
X5.69Y-5.3016
X5.69Y-5.4984
T4
X4.57Y-5.78
X4.77Y-5.78
T5
X5.48Y-5.28
X5.48Y-5.51
X5.58Y-5.28
X5.58Y-5.51
T6
X4.5816Y-5.05
X4.7784Y-5.05
X5.3Y-5.06
X5.3Y-5.77
X5.6Y-5.06
X5.6Y-5.77
T7
X4.3574Y-5.3508
X4.3574Y-5.4492
X4.4354Y-5.3508
X4.4354Y-5.4492
T8
X4.79Y-5.3
X4.79Y-5.4
X4.79Y-5.5
X5.3Y-5.88
X5.6Y-5.88
X5.84Y-5.15
X5.84Y-5.25
X5.84Y-5.35
X5.84Y-5.45
X5.84Y-5.55
X5.84Y-5.65
T9
X4.2504Y-5.163
X4.2504Y-5.637
T10
X4.13Y-4.89
X4.13Y-5.91
X5.86Y-4.89
X5.86Y-5.91
T0
M30
